<?xml version="1.0" standalone="yes"?>
<svg width="1512" height="2016">
<path style="fill:#0d0a09; stroke:none;" d="M0 0L0 2016L1512 2016L1512 0L0 0z"/>
<path style="fill:#ada9aa; stroke:none;" d="M519 808L519 802L520 802L520 806L524 805L524 806C514.595 810.805 527.147 817.736 531.576 821.365C545.394 832.69 560.739 848.562 577 856C576.968 844.44 577.138 837.055 572 827L579 832L587 799L573 799L573 798C577.208 797.95 579.71 797.734 582 794L583 794L582 799C587.439 797.196 587.951 794.438 588 789L590 789L581 830L583 829L583 830C580.73 833.946 581.16 842.621 588.039 841.263C596.213 839.65 601.987 830.866 611 829L610 825L614 829C608.372 830.505 602.793 832.381 598 835.788C594.83 838.042 591.123 840.779 588.588 843.745C575.215 859.397 597.612 874.001 608 881.87C618.462 889.795 627.493 901.985 639 890L639 889L634 881L640 888L641 888C647.75 882.667 658.57 880.964 652 871L656 880C665.326 877.484 661.662 868.177 658 862L663 864L662 861L666 866L670 865L668 861L675 870L674 870C670.556 864.828 668.134 869.982 668 874L672 874L672 875L670 877L672 881L674 881C674.751 877.915 676.862 874.829 673 874L674 871L677 872L676 862L672 863L672 862L676 860L676.171 833L677 819C682.004 816.107 682.548 810.851 680 806L691 803C684.134 809.053 670.181 835.356 681 843L681 844C675.245 845.233 678.519 858.42 679 863L683 862L682 868L688 866L686 869L691 868L690 871L702 874L702 875C697.566 874.324 691.423 871.056 687.174 871.531C679.849 872.349 677.312 888.327 676 894L686 897L674 896L674 913L680 911L680 912C671.537 914.818 682.306 926.542 685 931L690 923C696.252 918.491 691.208 903.993 686 912L680 911L680 910L683 910L683 906L684 906L684 909C696.055 906.204 708.772 907.06 712 894L714 897L736 872L722 891C735.818 885.037 749.726 869.451 756 856L745 862L745 861C750.187 858.502 751.545 854.515 752 849L753 849L753 855L758 855C761.22 849.717 769.162 844.86 775 843L773 849L772 849L773 845L764 852L780 852L780 853L763 853L767 858C763.113 865.799 768.044 872.241 768.653 880C769.088 885.538 767.239 891.442 767 897L776 892C768.579 899.272 766 902.512 766 913C773.08 910.547 778.207 903.459 784.039 898.895C795.122 890.221 810.622 887.28 813 871C821.604 868.527 827.278 851.994 830 844L826 844L826 843C831.547 842.118 833.105 838.178 834 833L835 833C833.382 848.818 821.067 862.571 814 876L817 880L815 878L814 878L810 884L811 885L817 880L822 884C808.552 884.698 792.145 895.274 782.001 903.576C777.859 906.966 772.216 910.279 772 916L774 914L775 914L776 918L769 916C763.817 925.466 765.327 931.74 765 942L764 942L764 934C758.684 936.539 757.376 941.086 754.05 945.576C746.909 955.213 739.373 965.291 736 977C741.253 974.55 744.223 969.819 748.83 966.488C754.154 962.639 760.32 966.917 761 958L762 958L762 960L763 960L763 957L764 957L762 964C772.148 961.877 781.538 968.645 791 962C788.95 965.59 786.316 966.697 788 971C780.203 965.934 774.109 966.05 765 966L763 982L764 967C755.499 964.558 745.451 971.981 741 979L753 979L753 980L737 980L750 992L735 983C728.419 992.666 713.592 1010.54 716 1023L729 1021.08L748 1012.3L767 1015L767 1010L768 1010C768.097 1018.22 773.855 1020.41 779 1026L780 1026L784 1018C788.124 1019.47 791.078 1020.79 793 1016L794 1016L794 1019L798 1018L811 1019.04L846 1018L996 1012L996 1013C949.046 1015.42 901.973 1016.9 855 1018.96C835.529 1019.81 810.613 1016.5 792 1022L794 1026L790 1027L789 1027L790 1023C779.606 1020.21 780.392 1031.6 783 1038L785 1038L788 1027L789 1027L786 1047L785 1047L785 1045L784 1045L784 1051L812 1042L794 1026C809.994 1035.11 826.703 1048.31 840 1061L814 1042L813 1042L788 1052L791 1057L787 1057L787 1053C777.973 1053.6 764.992 1059.62 761 1068C786.861 1068 820.157 1073.34 845 1066L840 1061C852.328 1068.08 860.238 1066.17 874 1066C889.057 1065.82 903.999 1065.7 919 1065.04C975.086 1062.58 1031.88 1062 1088 1062C1106.31 1062 1124.69 1060 1143 1060C1148.49 1060 1160.92 1062.32 1165.47 1058.97C1168.78 1056.54 1167.41 1050.43 1167.16 1047C1166.41 1037.07 1166 1026.96 1166 1017C1166 1013.63 1167.28 1006.48 1163.57 1004.6C1158.42 1002 1148.54 1005.53 1143 1005.91C1125.38 1007.12 1107.64 1006.88 1090 1008.09C1067.96 1009.6 1046.12 1011 1024 1011L1024 1010L1165 1003C1168.17 973.296 1162.74 941.762 1162.01 912C1159.87 824.388 1155.05 736.613 1154 649C1153.66 619.963 1152 591.045 1152 562C1152 556.131 1154.72 536.886 1149.4 533.067C1146.19 530.767 1136.76 533.254 1133 533.715C1119.38 535.389 1105.65 536.509 1092 537.83C1035.02 543.344 977.968 548.405 921 553.83C786.11 566.677 650.828 575.286 516 588.17C459.775 593.543 403.334 597.231 347 601.089C319.442 602.977 291.641 607 264 607C274.516 603.892 287.078 604.659 298 603.911C316.008 602.676 333.992 601.144 352 599.911C399.354 596.667 446.643 592.154 494 588.911C640.074 578.906 786.246 565.275 932 551.17C985.443 545.998 1039.39 539.021 1093 536.036C1107.23 535.243 1121.9 534.09 1136 532.13C1139.38 531.66 1147.74 532.218 1149.97 529.397C1153.98 524.336 1150 510.116 1150 504C1150 479.294 1148.01 454.643 1148 430C1148 423.073 1151.33 404.45 1143.89 400.853C1135.18 396.638 1124.26 394.767 1115 391.806C1096.63 385.926 1078.45 379.466 1060 373.795C1013.79 359.59 967.903 343.978 922 328.833C817.479 294.347 713.419 258.321 609 223.515C539.581 200.376 469.07 178.594 400.576 152.889C338.784 129.699 275.204 111.005 213 88.9104C197.386 83.3644 181.63 78.2056 166 72.6991C160.44 70.7402 150.916 67.1406 145.148 69.7423C141.05 71.5908 141.144 78.1687 140.815 82C139.763 94.2576 139.271 106.725 138.985 119C137.83 168.624 134.535 219.592 129.83 269C124.768 322.156 122.308 376.465 119.961 430C119.333 444.318 117.59 458.636 116.961 473C116.745 477.918 114.184 484.27 116.357 488.961C120.004 496.834 132.366 503.142 139 508.449C156.394 522.364 173.44 536.716 191 550.424C250.605 596.956 308.722 645.289 368 692.286C405.008 721.626 441.655 751.442 479 780.349C488.328 787.57 497.514 795.019 507 802.015C510.932 804.914 513.886 808.723 519 808M116 493L112.91 541L107.91 620L90.9105 879L83.8302 983L82 1011L80.6427 1024.68L93 1027L131 1028L131 1029L94 1028L81.179 1029.6L79.9961 1040L79 1063L84 1063L84 1064L78 1065L77 1082L80 1082C76.7001 1087 75.7192 1092.43 83 1093L79 1097L78 1094L77 1094L78 1101L74 1101L75 1140C70.0513 1143.5 68.7139 1158.76 76 1160L76 1161L72 1165L90 1161L97 1160L107 1163L105 1159C109.236 1160.76 112.478 1161.31 115 1157L120 1159L118 1163L124 1162C120.879 1165 118.601 1164.21 116 1161L111 1163L113 1166L107 1165L115 1168L114 1172L123 1174C117.319 1172.96 113.497 1173.31 111 1179L110 1175L76 1178L76 1177C79.3881 1176.52 82.2678 1175.53 83 1172C92.2453 1174.46 102.62 1175.77 112 1173C104.238 1158.31 66.9954 1159.48 71 1180C66.564 1183.24 69.2153 1187.35 72 1191L68.0502 1203L65.4059 1234L62.9066 1274L58.9066 1330L55 1384L58 1383L63 1384C67.0172 1389.45 81.4791 1391.01 88 1392.37C103.997 1395.71 121.369 1401.06 137 1405.9C171.343 1416.55 206.495 1424.38 241 1434.77C280.873 1446.78 321.402 1459.69 362 1469L360.71 1436L360 1417C370.24 1416.57 381.85 1415.53 392 1417.32C400.467 1418.82 408.253 1424.56 417 1422L418 1426C413.173 1429.41 412.222 1444.38 413 1450L409 1459C413.609 1457.71 417.074 1454.98 417 1450C428.577 1450.87 431.099 1437.82 429 1429L432 1430C432 1421.99 434.618 1411.71 432.682 1404C431.559 1399.53 427.378 1397.11 424.518 1393.83C418.141 1386.51 414.475 1378.8 405 1375L406 1373C396.49 1366.5 385.987 1357.81 379.727 1348C370.887 1334.14 370.872 1322.52 356 1311.91C341.693 1301.7 326.121 1296.35 311 1288.53C306.183 1286.04 297.945 1286.55 295 1282C303.982 1285.32 312.242 1289.63 321 1293.14C324.217 1294.43 327.224 1294.62 328 1291L329 1291C331.221 1297.55 341.66 1301.64 348 1303L346 1299L368 1318C369.651 1309.99 369.634 1301.78 359 1302L360 1298L355 1296L355 1295L365 1297C366.342 1300.9 368.001 1302.85 372 1304C371.529 1326.82 380.104 1348.46 398.039 1363.24C404.433 1368.51 411.271 1376.45 420 1374L431 1386L418 1377C417.885 1383.48 426.52 1394.62 433 1396L431 1387L431 1386L432 1382L430.699 1370L426 1336L432 1335C430.394 1329.3 429.804 1317.86 422 1319C422.409 1310.21 415.823 1305.82 410 1300C401.92 1291.92 391.083 1283.58 385.096 1273.74C380.104 1265.54 377.592 1254.74 369.826 1248.32C365.425 1244.68 360.746 1247.99 356 1249L356 1248C358.472 1247.19 363.314 1246.42 364.288 1243.58C366.175 1238.09 351.778 1220.19 347.699 1216.53C338.255 1208.07 327.694 1200.88 318.575 1191.79C307.723 1180.97 294.34 1160.81 280 1155.01C274.489 1152.78 265.94 1153.05 260 1153L260 1152L279 1152L278 1149C293.529 1164.53 309.737 1179.3 325.486 1194.45C332.607 1201.3 339.457 1211.85 350 1213C349.741 1201.99 340.614 1181.48 331 1176L330 1159L331 1159C331.499 1165.32 331.678 1178.13 340 1178C342.817 1187.73 347.956 1195.71 351.274 1205C353.579 1211.45 353.279 1217.8 356.926 1224C363.668 1235.46 373.538 1244.68 380.351 1256C389.122 1270.58 398.728 1289.55 415 1297L416 1290L423 1307C433.967 1304.61 423.605 1279.61 422.829 1272C420.418 1248.36 406.124 1233.23 398.066 1212C392.287 1196.78 392.525 1179.44 376 1171L376 1170L379 1161L380 1161C380.353 1169.23 381.534 1179.05 391 1181C390.559 1170.74 388.329 1138.4 376 1138C375.812 1117.01 348.816 1116.53 334 1113L334 1112L343 1110L353 1112L345 1098C349.814 1098.14 352.873 1099.27 356 1103L350 1100C352.645 1107.88 355.83 1114.15 365 1112L368 1119L365 1118L366 1121L369 1119C370.613 1123.53 373.493 1125.56 378 1127C377.005 1121.22 375.623 1114.53 369 1114L369 1113L373 1113C372.624 1106.05 366.848 1092.35 359 1092L361 1090C358.617 1083.91 351.487 1083.82 346 1081.7C334.264 1077.17 315.877 1062.17 303 1071L302 1071C297.795 1066.19 284.067 1069.43 278 1069.04C260.998 1067.97 244.052 1068 227 1068C217.755 1068 208.022 1066.78 199 1069C203.138 1062.62 217.469 1066.67 224 1066.96C248.987 1068.05 274.143 1066.88 299 1067L293 1064L293 1063L325 1068L328 1065L314 1059L317 1060L318 1059L316 1052L317 1052L319 1059L336 1062L336 1063C331.454 1062.24 329.674 1063.82 328 1068L342 1066L355 1070L351 1069C358.877 1077.9 358.94 1065.77 357.8 1060C356.297 1052.39 355.215 1044.21 352.236 1037C349.357 1030.03 345.068 1027.06 345 1019L346 1019C346.097 1023.54 346.241 1027.46 351 1029L349 1009L352 1011C351.723 999.977 345.255 994.807 339.981 985.83C334.389 976.314 332.236 966.769 324 959L331 960C332.3 966.22 333.856 973.844 341 975L338 962L339 954L340 954C341.47 965.622 342.338 977.782 345.927 989C347.499 993.911 351.454 997.298 353.347 1002C356.622 1010.13 354.554 1019.78 353 1028L364 1029L364 1030C361.323 1030.01 357.01 1029.37 355.607 1032.32C353.963 1035.78 356.259 1040.61 357.105 1044C359.413 1053.25 359.569 1075.08 368 1080L365 1081L368 1085L369 1093L373 1094L371 1096L371 1097L380.498 1111.82L402 1113L401 1110L413 1113C413 1103.57 411.377 1076.62 402.61 1071.03C396.973 1067.43 383.578 1070 377 1070L377 1069L400.397 1067.97L400.884 1057L391 1030L371 1030L371 1029C375.598 1029 387.864 1031.3 389 1026L392 1028L395 1012L396 1012L394 1029L430 1029L444 1031C435.867 1029.41 424.718 1028.73 417 1032C413.113 1027.55 398.792 1030 393 1030C393.12 1035.62 394.106 1043.11 401 1043C401.384 1049.04 401.164 1062.64 405.024 1067.4C407.304 1070.21 413.815 1069 417 1069C426.351 1069 447.633 1073.58 455 1068L456 1068L476 1070C473.089 1064.62 470.066 1062.72 464 1063L464 1062L469 1061L462 1054L468 1054C470.667 1060.58 475.788 1060.47 482 1062C485.221 1050.29 476.132 1030.43 463 1030L463 1029L466 1029C464.915 1025.19 463.009 1022.59 459 1022C453.94 1004.03 426.543 1003.74 417 991L407 993C403.25 991.22 393.38 985.56 392 992L391 992C389.022 986.376 378.308 986.047 373 986L373 985L399 985L398 988C400.905 988.733 408.378 990.734 409 987C418.07 990.72 428.743 991.716 436.871 997.383C448.705 1005.63 457.87 1020.06 470.04 1027.22C473.863 1029.47 488.295 1029.43 491 1026L492 1026L495 1028C493.878 1018.66 491.699 1006.09 485.856 998.39C482.52 993.997 475.519 991.709 471 988.641C463.994 983.885 457.45 977.313 451 971.79C443.074 965.003 436.763 954.168 427 950L427 949L431 949L431 938L432 938C432.017 946.133 432.085 953.678 442 954L442 955C438.779 957.997 442.607 961.483 445.019 964C450.634 969.859 459.114 978.787 467 981C468.267 987.328 479.228 992.174 485 994C483.878 981.132 477.481 969.634 473.302 957.83C471.592 952.999 473.19 947.859 470.697 943.001C468.002 937.75 462.172 931.209 456 932L452 927L470 938C469.356 930.672 465.785 922.446 459 919C460.34 911.731 449.175 897.631 443 894L444 890L435 889L432 887L432 886L445 887C443.75 877.725 436.397 858.57 425 859L424 851L436 860C435.795 865.915 440.817 869.774 443.123 875C445.986 881.487 445.407 888.614 447.843 895C450.055 900.796 455.032 905.496 458.795 910.286C461.591 913.845 463.011 919.083 468 919L470 930C474.488 926.928 479.47 914.588 474 911L474 910L477 910L477 906L478 906L482 912C469.775 919.426 474.443 937.193 476.231 948C476.79 951.381 475.28 961.364 481.004 961.364C484.361 961.364 486.045 956.491 487.088 954C489.56 948.096 496.64 929.929 491 925C493.259 915.05 485.133 920.713 482 914C491.841 919.139 493.018 905.892 491 899C494.796 895.631 492.366 887.755 488 886L490 884C485.726 881.433 482.995 879.398 478 881L478 874L481 873C482.47 878.193 486.273 880.751 491 883L474 850L472 852L471 852L470 852L467 850L466 841L470 846L468 849C477.763 843.877 459.319 826.703 455 822L459 822C463.265 836.043 469.082 813.845 470 810L471 810C470.921 813.811 471.224 819.805 469.537 823.255C468.4 825.58 465.391 827.011 465.306 829.845C465.17 834.326 474.793 847.635 479 849L479 850C473.705 854.839 484.492 868.256 489 871L491 866L493 882C497.195 879.868 499.716 876.786 499 872L501 870L494 863C494.088 858.423 492.485 855.348 488 854L488 853L492 852L486 845C489.262 829.345 474.594 806.337 459 804L460 799L461 799L469 805L469 799L470 799C471.8 806.528 477.368 813.052 480.68 820C487.063 833.394 490.705 856.17 502 866L500 828C504.655 831.386 504.984 848.147 505 854L508 853L507 859L506 859L506 857L505 857L504 868L507 867C500.901 876.698 512.593 900.499 518 910L524 909L524 910C516.755 911.581 520.108 917.401 522.104 922.424C524.784 929.169 535.461 938.132 543 937L542 932L543 932L546 935L547 927L541 929L540 926L542 923L543 923L548 926L547 915L553 911L547 910L547 909L555 910C554.814 902.098 563.552 883.286 555 878L557 875L550 875L546 871L546 870L565 877C556.387 875.872 558.326 901.759 558 909L565 904L556 914L563 973L567 970C565.225 973.392 558.654 990.526 568.806 989.079C578.337 987.72 577.001 968.91 575 963C581.7 958.071 584.831 942.955 585 935L584 935L582 940L581 940C584.989 926.149 581.47 916.209 581.441 902C581.429 896.15 582.379 887.539 576 885L576 884L580 885C579.777 879.882 578.948 875.505 575 872L575 871C582.29 864.63 572.937 856.019 568 852.255C551.691 839.818 532.337 827.546 518 813L517 813L503 828C505.895 824.095 514.264 817.155 513.824 812.039C513.213 804.934 497.029 796.814 491.83 792.611C469.757 774.767 446.814 757.999 425 739.856C387.038 708.282 347.567 678.39 309 647.551C297.05 637.995 285.191 628.237 273 619.001C268.503 615.594 263.621 609.967 258 608.552C247.625 605.942 232.653 610.181 222 610.911C189.529 613.135 156.552 617 124 617L124 616L256 607C248.048 593.255 226.472 581.316 214 571.49C191.473 553.741 169.447 535.34 147 517.487C137.156 509.657 127.442 498.304 116 493z"/>
<path style="fill:#0d0a09; stroke:none;" d="M112 617L112 618L120 618L112 617M122.667 617.333L123.333 617.667L122.667 617.333M629 760L626 766L627 766L629 760M623 761L624 762L623 761M593 775L594 775L599 768C595.184 767.913 593.97 771.744 593 775M625 767L626 768L625 767M456 768L457 773L458 773L456 768M520 770L521 771L520 770M452 771L453 772L452 771M519 773L518 777L519 773M584 774L585 775L584 774M457 775L458 776L457 775M585 776L584 780L588 780L588 776L585 776M592 776L593 777L592 776M625 777L626 778L625 777M858 777L859 778L858 777M518 778L519 779L518 778M591 778L590 789L591 789L591 778M458 779L459 785L460 785L458 779M857 779L858 780L857 779M622 784L618 795L624 784L622 784M585 785L583 794L584 794L585 785M403 786L405 788L403 786M460 786L459 799L460 799C460.916 794.413 462.975 790.105 460 786M500 786L501 787L500 786M679 790L678 792L679 790M385 791L386 792L385 791M551 793L551 797L552 797L553 793L551 793M672 793L674 803L680 806L672 793M410 794L411 795L410 794M490 797L490 798L494 796L490 797M851 796L850 798L851 796M421.667 797.333L422.333 797.667L421.667 797.333M473 804C477.753 804.007 484.158 800.88 487 797L473 804M617 797C616.183 807.35 612.868 819.302 602 823L602 824L610 825C610.745 816.982 617.192 803.465 622 797L617 797M691 803L695 803L697 800L696 802L697 802L697 799L701 798C696.816 796.989 693.521 799.87 691 803M513 798C513.814 801.017 515.118 801.738 517 799L513 798M518 799L519 800L518 799M551 799L551 802L552 802L551 799M421 800L422 803L423 803L421 800M441 800L442 801L441 800M444 802L447 800L444 802M848 800L845 808L846 808L848 800M436 801L437 802L436 801M448 801L448 802L455 803L455 802L448 801M520 801L521 802L520 801M537 801L534 802L534 806L537 809L541 810L537 801M524 804L524 805L529 804L524 804M423 804L430 811L429 805L429 804L423 804M548 805L550 809L548 805M462 806L461 808L462 806M582 807L583 808L582 807M758.333 808.667L758.667 809.333L758.333 808.667M581 809L582 810L581 809M533 810L534 811L533 810M542 810L543 811L542 810M544 812L558 820L558 833L559 833L559 830L563 832L571 831L571 830L560 829L559 820L572 827L572 826L553 813L548 810L544 812M845 810L837 824L835 833L836 833C838.537 826.824 847.444 816.476 845 810M769 812L770 813L769 812M394 813L394 815L396 815L394 813M388.333 815.667L388.667 816.333L388.333 815.667M434 815L434 816L441 818L434 815M459 816L460 817L459 816M649 816L650 817L649 816M760 816L761 823L762 823C762.539 819.589 763.342 817.671 760 816M442 818L442 819L455 822C451.956 816.51 447.49 817.571 442 818M740 817L740 818L744 819L744 818L740 817M823 817L824 818L823 817M631 819L631 820L635 819L631 819M655.333 818.667L655.667 819.333L655.333 818.667M743 823L747 821L743 823M622.667 821.333L623.333 821.667L622.667 821.333M667 821L668 822L667 821M397 822L398 823L397 822M620 822L614 827L614 828L619 828L620 822M771 822L772 829L773 829L774 822L771 822M517.333 823.667L517.667 824.333L517.333 823.667M835 823L836 824L835 823M589 824L583 828L583 829C586.305 828.713 590.589 828.053 589 824M760 824L760 829L761 829L760 824M592 825L593 826L592 825M646 826L648 828L648 829L646 831L652 829L652 828L649 825L646 826M530 826L529 829C531.158 828.022 531.501 827.812 530 826M780 826L781 827L780 826M653 830L653 831L655 835L656 835L655 830L658 830L657 827L653 830M446 828L449 831L446 828M516 828L517 829L516 828M736 828L737 829L736 828M781 828L782 829L781 828M548 829L549 830L548 829M515.333 830.667L515.667 831.333L515.333 830.667M552 830L553 831L552 830M586 830L587 838L588 838L588 830L586 830M734.667 830.333L735.333 830.667L734.667 830.333M389 831L389 832L424 851C416.939 841.213 400.686 832.345 389 831M732 831L733 832L732 831M760 831L753 849L754 849L763 836L760 831M770 831L768 837L769 837L773 832L770 831M449 832L450 836L451 836L449 832M452.333 832.667L452.667 833.333L452.333 832.667M524 832L522 837L523 837L524 832M683 862L684 862C695.39 842.864 710.23 838.01 730 833C713.187 826.804 687.585 846.556 683 862M514.333 833.667L514.667 834.333L514.333 833.667M732 833L732 834L735 834L732 833M779 833L780 834L779 833M674 834L675 835L674 834M455 835L458 838L455 835M629.667 835.333L630.333 835.667L629.667 835.333M746 835L750 838L750 837L746 835M558 836L559 837L558 836M592 836L591 838L592 836M654 836L653 842L657 842L654 836M657 836L658 837L657 836M671 837L671 846L672 846L671 837M460 838L465 842L465 841L460 838z"/>
<path style="fill:#ada9aa; stroke:none;" d="M579 838L581 841L581 842C575.678 846.367 578.878 858.798 584 862L581 838L579 838z"/>
<path style="fill:#0d0a09; stroke:none;" d="M608 838L609 839L608 838M633 838L633 839L635 841L636 841L633 838M836 838L837 839L836 838M610 839L612 841L610 839M767 839L764 845L767 839M511 840L508 843L508 853C511.203 849.863 512.328 844.316 511 840M537 840L538 841L537 840M566 840L569 842L566 840M659 840L658 843L659 840M722 840L723 841L722 840M790 840L791 841L790 840M689 841L681 844L681 845L691 845L689 841M747.333 841.667L747.667 842.333L747.333 841.667M775 842L775 843L784 842L775 842M786 841L787 842L786 841M793.667 841.333L794.333 841.667L793.667 841.333M824.667 842.333L825.333 842.667L824.667 842.333M477 843L477 844L481 845L481 844L477 843M637 843L643 850L637 843M714 843L715 844L714 843M453 844L455 847L453 844M658 844L660 856L648 848L662 861L666 857C664.964 853.893 662.543 850.136 666 851L665 848L664 848L662 856L661 856L663 845L662 845L660 847L658 844M715 845L716 849L717 849L715 845M669 846L668 849L669 846M747.333 846.667L747.667 847.333L747.333 846.667M806 847L807 848L806 847M519.333 848.667L519.667 849.333L519.333 848.667M616 848L621 859L622 859C621.501 854.378 619.943 850.604 616 848M801 848L802 849L801 848M636 849L635 851L636 849M792 849L792 850L795 850L792 849M571 850L572 851L571 850M455.333 851.667L455.667 852.333L455.333 851.667M483 851L484 852L483 851M717 851L717 858L718 858L718 855L722 859L718 859L718 860L722 859L723 859L727 863L719 851L717 851M723.333 851.667L723.667 852.333L723.333 851.667M748.333 851.667L748.667 852.333L748.333 851.667M757 851L758 852L757 851M459 852L452 865L452 866L466 873L478 874L478 873L458.117 864.721L457 856L464 856L464 855L459 852M630 856L635 852L630 856M704 852L705 853L704 852M809 852L810 853L809 852M820 852L821 853L820 852M645 853L645 854L648 855L648 854L648 853L645 853M671 853L673 855L673 853L671 853M704 859L705 859L709 854C705.76 853.924 704.839 856.081 704 859M466 855L464 857L466 860L468 859L471 861L466 855M557 855L558 856L557 855M470 856L471 857L470 856M517 856L514 861L515 861L517 856z"/>
<path style="fill:#ada9aa; stroke:none;" d="M749 869L758 867L753 866L753 865L759 865L763 872L763 873L755 873L750 873L748 871L716 899L719 899L719 900L718 904L714 904L708 918C698.43 918.201 691.415 928.081 691 937C696.46 936.696 702.278 936.192 705 931C707.396 931.575 707.487 931.475 708 929C717.054 933.757 723.705 926.869 732.001 924.494C735.911 923.375 741.347 924.035 744.833 921.987C747.516 920.411 747.027 918.39 746 916L754 913L757 916L757 917L751 919L752 922L747 926L756 924L745.278 928.448L739 935L742 927C725.622 928.293 718.916 938.106 706 947L707 950L703 949C701.264 957.267 709.868 961.378 717 962C717.306 968.884 726.331 974.075 732 977C738.191 961.909 748.484 950.211 755.958 936C759.231 929.775 761.985 922.279 753 921L760 920L761 907L755 912C759.096 905.721 762.677 899.388 755 894L756 884L757 884L762 899L765 891L762 894L761 894L763 888L766 890L767 886L761 862L762 856C755.779 857.042 751.174 863.389 749 869z"/>
<path style="fill:#0d0a09; stroke:none;" d="M413 857L414 858L413 857M422 857L423 858L422 857M672 857L674 859L672 857M818 857L819 858L818 857M628 858L623 860L622 860C623.123 868.654 626.818 875.834 634 881L625.376 866L628 858M507 859L509 879L510 879L510 865L513 862L507 859M558 859L557 872L558 872L560 859L558 859M667 860L668 861L667 860M687.333 860.667L687.667 861.333L687.333 860.667M702.333 860.667L702.667 861.333L702.333 860.667M716 860L717 861L716 860M437 861L440 863L437 861M797 861L793 864L793 865L797 861z"/>
<path style="fill:#ada9aa; stroke:none;" d="M579 862L580 875C584.639 871.723 583.757 864.623 579 862z"/>
<path style="fill:#0d0a09; stroke:none;" d="M685 862L684 864L685 862M736 872L743 868L745 862C740.336 863.737 737.887 867.518 736 872M443 863L444 864L443 863M465 863L466 867L467 867L465 863M491 863L491 864L494 864L491 863M706.667 863.333L707.333 863.667L706.667 863.333M720 863L715 868L710 866L692 866L693 869C702.408 867.407 712.652 864.46 715 876L716 876L716 871L719 872L718 869L723 868L720 869L720 863M474 864L475 865L474 864M654.667 864.333L655.333 864.667L654.667 864.333M727 864L728 865L727 864M759 864L760 865L759 864M427 865L428 866L427 865M527.667 865.333L528.333 865.667L527.667 865.333M688.667 865.333L689.333 865.667L688.667 865.333M791 865L790 867L791 865M531 866L531 867L546 870L546 869L531 866M728 866L732 871L728 866M378 867L379 868L378 867M513 867L514 868L513 867z"/>
<path style="fill:#ada9aa; stroke:none;" d="M586 867C582.514 881.635 585.248 894.333 585.961 909C586.251 914.957 585.753 924.136 591 928L590 925L594 920C599.244 918.516 602.905 914.587 602 909L626 899C617.584 887.3 598.904 873.428 586 867z"/>
<path style="fill:#0d0a09; stroke:none;" d="M744 867L744 868L747 868L744 867M775.333 867.667L775.667 868.333L775.333 867.667M809 868L809 869L813 870L812 867L809 868M380 868L380 869L383 870L380 868M724.667 868.333L725.333 868.667L724.667 868.333M786 868L787 869L786 868M386 869L387 870L386 869z"/>
<path style="fill:#ada9aa; stroke:none;" d="M681 869L682 870L681 869z"/>
<path style="fill:#0d0a09; stroke:none;" d="M378 870L379 871L378 870z"/>
<path style="fill:#ada9aa; stroke:none;" d="M664 870L664 876C666.969 874.002 666.368 872.385 664 870z"/>
<path style="fill:#0d0a09; stroke:none;" d="M777 873L776 873L775 871L772 873L773 877L770 878L770 879L784 871L777 873M384 871L386 873L384 871z"/>
<path style="fill:#ada9aa; stroke:none;" d="M681 871L680 876L681 871z"/>
<path style="fill:#0d0a09; stroke:none;" d="M388 872L389 873L388 872M732 872L733 873L732 872M573.667 873.333L574.333 873.667L573.667 873.333M704 873L704 874L709 875L704 873M751 873L754 881L755 881L751 873M513 874C515.295 876.869 518.218 879.611 521 876L513 874M565 874L566 875L565 874M467 875L476 906L477 906L470 880L474 880L474 879L467 875M686 875L688 877L686 875z"/>
<path style="fill:#ada9aa; stroke:none;" d="M501 876C499.173 878.773 496.21 882.364 496.528 885.91C496.896 890.021 508.389 903.155 512 905L507 897L507 896L503 876L501 876z"/>
<path style="fill:#0d0a09; stroke:none;" d="M691 876L689 877L689 878L691 876M704 876L705 877L704 876M387 877L401 892L402 892L395 880L399 880L399 879L387 877M402 877L403 878L402 877M525.667 877.333L526.333 877.667L525.667 877.333M547 877L547 879L549 879L547 877M565 877L576 884L576 883L565 877z"/>
<path style="fill:#ada9aa; stroke:none;" d="M661 883L660 883C652.925 876.226 632.047 894.634 650 896L650 897C644.716 902.035 653.432 914 656 919C660.753 915.408 667.04 910.421 666 904L670 904L669 900C675.303 894.52 670.707 883.541 669 877C664.665 877.484 662.273 878.714 661 883z"/>
<path style="fill:#0d0a09; stroke:none;" d="M403 881L411 881C408.07 879.369 405.212 878.06 403 881M554 878L555 879L554 878M401 879L402 880L401 879M552 879L553 880L552 879M382 880L383 881L382 880M439 880L440 881L439 880M510 880L511 887L512 887L510 880M695 880L695 888L697 888L695 880M379 881L380 882L379 881M412.667 881.333L413.333 881.667L412.667 881.333M481 881L484 886L485 886L481 881M544 881L545 882L544 881M546 882L546 883L553 884L546 882M692 881L693 882L692 881M710 881L715 886L710 881M823 882L823 883L842 883.789L859 891L859 890L855 888L855 887L870 883L853 885.552L823 882M415 882L415 883L428 886L428 885L415 882M755.333 882.667L755.667 883.333L755.333 882.667M770 882L773 892L770 882M805 882L805 884L807 882L805 882M659 883L657 892L658 892L659 883M760 883L759 885L760 883M689 884L688 886L690 886L689 884M795.667 884.333L796.333 884.667L795.667 884.333M429 885L429 886L432 886L429 885M742 889L746 886L742 889M782 888L782 889L785 891L786 891L792 887L782 888M818 886L819 887L818 886M531 887L534 889L534 888L531 887M712 887L713 892L714 892L712 887M486 888L487 892L488 892L486 888M512 888L513 889L512 888M434 889L432 892L434 889M679 889L680 890L679 889M717 889L718 890L717 889M780 889L781 890L780 889M512 890L513 891L512 890M689 890L690 891L689 890M735 891L737 898L738 898C738.358 894.317 739.457 893.047 743 892L735 891M778 890L777 892L778 890z"/>
<path style="fill:#ada9aa; stroke:none;" d="M495 891C496.423 896.993 491.773 909.511 497 913L497 914L494 914L496 926L509 913L509 912L497 913L497 912L511 911C508.535 903.263 502.446 894.475 495 891z"/>
<path style="fill:#0d0a09; stroke:none;" d="M744 891L744 892L747 892L744 891M874 891L876 893L874 891z"/>
<path style="fill:#ada9aa; stroke:none;" d="M638 892L639 896L632 899L652 915L646 906C646.929 900.122 643.867 893.804 638 892z"/>
<path style="fill:#0d0a09; stroke:none;" d="M689 892L690 893L689 892M695 892L690 894L690 895L692 899L691 899L689 896L694 902L694 897L697 892L695 892M730 893L730 894L732 893L732 894L724 896L724 897L727 896L728 897L727 900C730.437 897.819 732.813 896.211 733 892L730 893M753 892L754 893L753 892M402 893L405 898L406 898L402 893M781.333 893.667L781.667 894.333L781.333 893.667M784 893L785 894L784 893M442 894L443 895L442 894M542 894L543 897L544 897L542 894M424.667 895.333L425.333 895.667L424.667 895.333M505.667 895.333L506.333 895.667L505.667 895.333M650 895L650 896L656 896L654 911L655 911L657 896L660 897L650 895M564 896L565 897L564 896z"/>
<path style="fill:#ada9aa; stroke:none;" d="M759 896L760 897L759 896z"/>
<path style="fill:#0d0a09; stroke:none;" d="M876 896L877 897L876 896M617 897L616 900L617 897M719 898L719 899L723 898L719 898M428 898L429 899L428 898M545 898L548 904L549 904L545 898M563 898L564 899L563 898M660 898L666 904L660 898M433 899L434 900L433 899M577 899L575 902L577 899M422 900L423 901L422 900M428 900L428 901L432 902L428 900M605.667 900.333L606.333 900.667L605.667 900.333z"/>
<path style="fill:#ada9aa; stroke:none;" d="M597 923L606 923L606 924L594.214 926.603L588.062 943.424L581.518 966L580.367 982L572.482 997L568 1027C579.241 1026.86 583.779 1020.33 585 1009L588 1009L582 1027L603 1024C607.843 1027.39 623.177 1026.38 628 1023C639.277 1031.49 646.145 1006.86 645 999C655.127 993.084 653.805 966.849 644 961C644.242 954.686 638.322 947.019 632 946L632 945C640.636 945.269 644.911 940.387 649 933L650 933C647.844 937.836 641.24 942.631 640.988 948C640.774 952.545 651.919 971.687 656.575 967.573C665.33 959.838 660.54 946.572 657.306 938.039C652.428 925.173 654.057 910.782 636 908C634.577 900.373 627.012 900.074 621 902.142C608.975 906.277 604.557 912.85 597 923z"/>
<path style="fill:#0d0a09; stroke:none;" d="M746 900L747 901L746 900M408 901L409 902L408 901M413 902L408 905L416 910L416 909L413 902M601 902L601 905L603 902L601 902M726 902L723 906L726 902M746 903L747 904L746 903M566.667 904.333L567.333 904.667L566.667 904.333M675 904L675 907L676 907L675 904M550 905L552 908L552 905L550 905M681 905L682 906L681 905z"/>
<path style="fill:#ada9aa; stroke:none;" d="M512 906L513 910L514 910L512 906z"/>
<path style="fill:#0d0a09; stroke:none;" d="M532 907L532 908L546 909L532 907z"/>
<path style="fill:#ada9aa; stroke:none;" d="M694 907L694 920C699.755 917.309 704.009 912.003 706 906L694 907z"/>
<path style="fill:#0d0a09; stroke:none;" d="M746 906L749 910L746 906M752 906L755 908L755 907L752 906M714 907L714 908L719 908L716 911L716 912L736 915C729.938 909.93 721.835 907.342 714 907M288 908L289 909L288 908M526 908L526 909L530 909L526 908z"/>
<path style="fill:#ada9aa; stroke:none;" d="M668 908L658 921L670 928L670 908L668 908z"/>
<path style="fill:#0d0a09; stroke:none;" d="M637 909L638 910L637 909z"/>
<path style="fill:#ada9aa; stroke:none;" d="M708 909L706 912L708 909z"/>
<path style="fill:#0d0a09; stroke:none;" d="M290 910L291 911L290 910M437 911L452 927L437 911M561 911L561 912L566 912L561 911M567 911L568 912L567 911M639 911L638 919L645 919L645 918L639 911M775 914L784 915C782.412 911.203 776.13 908.728 775 914M417 912L426 922L417 912M624 912L623 915L624 915L624 912M686 912L687 913L686 912M754 912L755 913L754 912M411 913L415 917L411 913M472 913L473 914L472 913z"/>
<path style="fill:#ada9aa; stroke:none;" d="M553 913C550.003 920.307 546.266 928.992 548 937C543.662 939.823 545.641 944.827 547.309 949C551.088 958.449 556.26 967.887 558 978L561 978C561 964.887 558.675 951.003 557 938C556.521 934.281 556.021 926.505 552 926C553.887 921.727 555.646 917.218 553 913z"/>
<path style="fill:#0d0a09; stroke:none;" d="M423 914L424 915L423 914M471 915L468 919L471 915z"/>
<path style="fill:#ada9aa; stroke:none;" d="M492 989C490.219 995.203 493.39 999.194 495.069 1005L498.924 1018C500.534 1023.69 513.97 1035.85 518.357 1025.68C519.837 1022.25 517.202 1017.17 516.001 1014C512.857 1005.71 511.925 991.853 502 989L505 985L517 1012L519 1009L520 1009L524 1023L521 1022C525.608 1034.52 542.953 1006.55 540 999C546.488 999.129 554.65 983.218 553.125 976.981C548.763 959.139 530.692 947.355 521.213 932C518.272 927.236 518.117 916.056 511.056 915.301C506.623 914.827 499.103 924.803 497.06 928.259C492.657 935.709 493.798 946.803 490.648 954.981C488.301 961.075 483.232 965.926 484.282 973C484.985 977.729 487.097 987.567 492 989z"/>
<path style="fill:#0d0a09; stroke:none;" d="M611 919L611 920L618 916L611 919z"/>
<path style="fill:#ada9aa; stroke:none;" d="M703 915L703 917L705 915L703 915z"/>
<path style="fill:#0d0a09; stroke:none;" d="M713 915L712 917L713 915M738 915L738 917L740 917L738 915M757.667 915.333L758.333 915.667L757.667 915.333M294 916L297 919L294 916M546 916L541 923L546 916M450 918L455 920L455 919L450 918M457 918L458 919L457 918M636 918L637 919L636 918M689 918L691 921L689 918M776 918L777 919L776 918M786 918L787 922L788 922L786 918M483 919L484 920L483 919M602 919L603 920L602 919z"/>
<path style="fill:#ada9aa; stroke:none;" d="M675 919C672.298 927.891 673.289 933.648 682 938C685.342 930.923 680.527 923.703 675 919z"/>
<path style="fill:#0d0a09; stroke:none;" d="M639 920L639 923L640 923L639 920M778.333 920.667L778.667 921.333L778.333 920.667M608 921L607 923L609 923L608 921M708 921L706 929L710 921L708 921M771 921L766 925L769 933L771 933L773 922L771 921M538 922L532 927L537 927L538 922M613 922L614 923L613 922M645 922L647 924L645 922M299 923L300 926L301 926L299 923z"/>
<path style="fill:#ada9aa; stroke:none;" d="M657 923C657.208 927.845 659.55 948.627 668.671 942.806C674.988 938.774 668.721 929.137 663 929L657 923z"/>
<path style="fill:#0d0a09; stroke:none;" d="M756 923L757 924L756 923M316 924L317 925L316 924M427 924L428 928L429 928L427 924M477 924L476 926L477 924M539 925L540 926L539 925M335 926L335 929L336 929L335 926M394 927L395 928L394 927M615 927L615 929L617 929L617 927L615 927M651 927L650 933L653 935L654 935L652 930L654 930L651 927M302 928L303 933L304 933L302 928M396 928L396 929L400 930L400 929L396 928M429 929L430 930L429 929M611 929L611 931L613 931L611 929M641 929L642 930L641 929z"/>
<path style="fill:#ada9aa; stroke:none;" d="M524 930C528.098 939.209 537.825 950.722 547 955C542.436 942.608 534.768 937.034 524 930z"/>
<path style="fill:#0d0a09; stroke:none;" d="M615 930L616 931L615 930z"/>
<path style="fill:#ada9aa; stroke:none;" d="M689 931L687 937C689.554 935.35 690.098 933.88 689 931M706 934L708 937L708 938C704.118 939.177 703.301 941.048 703 945L722 931L706 934z"/>
<path style="fill:#0d0a09; stroke:none;" d="M748.333 931.667L748.667 932.333L748.333 931.667M430 932L430 935L431 935L430 932M615 932L616 933L615 932M550 933L548 936L550 933M643 933L644 934L643 933M695 933L697 935L695 933M304 934L303 937L324 959C320.386 949.668 311.489 940.515 304 934M335 934L333 940L332 946L332 953L335 952L335 934M408 935L409 936L408 935M742 935L741 939L742 939L742 935M771 935L773 937L773 935L771 935M313 936L312 938L314 938L313 936M410 936L410 937L427 949L427 948L410 936z"/>
<path style="fill:#ada9aa; stroke:none;" d="M674 936C674.652 939.911 676.136 940.7 680 941L674 936z"/>
<path style="fill:#0d0a09; stroke:none;" d="M616 937L616 938L619 939L616 937M662 938L664 940L664 938L662 938z"/>
<path style="fill:#ada9aa; stroke:none;" d="M698 951L702 938C690.529 938.032 686.805 944.506 698 951z"/>
<path style="fill:#0d0a09; stroke:none;" d="M776 939L777 940L776 939M313 940L314 941L313 940M580 940L567 970C572.395 965.526 581.935 946.981 580 940M767 941L761 953L761 954L764 956L767 941M554.333 942.667L554.667 943.333L554.333 942.667M626.667 943.333L627.333 943.667L626.667 943.333z"/>
<path style="fill:#ada9aa; stroke:none;" d="M675 943L678 945L675 943M676 962L680 961C691.414 977.536 687.987 926.699 678.779 949.005C678.118 950.606 677.757 952.306 677.428 954L676 962z"/>
<path style="fill:#0d0a09; stroke:none;" d="M629 944L629 945L632 945L629 944M652 944L653 945L652 944z"/>
<path style="fill:#ada9aa; stroke:none;" d="M655 994L652 998C658.195 994.595 670.354 985.962 665 978C671.204 971.1 675.034 952.382 671 944C664.355 946.696 664.895 952.754 663.14 959C659.918 970.476 651.412 981.51 655 994z"/>
<path style="fill:#0d0a09; stroke:none;" d="M826 945L827 946L826 945M820 946L821 947L820 946M563 949L563 954L571 948L563 949M804 951L804 952L819 948L804 951M487 948L488 949L487 948z"/>
<path style="fill:#ada9aa; stroke:none;" d="M689 948L690 957L696 951L689 948z"/>
<path style="fill:#0d0a09; stroke:none;" d="M452 949L453 950L452 949z"/>
<path style="fill:#ada9aa; stroke:none;" d="M565 949L566 950L565 949z"/>
<path style="fill:#0d0a09; stroke:none;" d="M637 950L638 954L639 954L637 950M707 950L708 951L707 950M756 951L757 954L756 951M822 951L823 955L824 955L822 951M336 952L338 954L336 952M713 952L714 959L713 952M443 953L446 957L445 953L443 953M709 953L711 955L709 953M776 953L777 954L776 953M802 953L798 957L802 953M810 953L808 954L809 959L810 959L810 956L813 957L810 953M345 954L347 956L345 954M594 954L595 959L599 958L599 957L594 954M678 954L684 961L678 954M331 955L331 960L332 960L331 955M567 955L569 957L567 955M755 955L753 959L754 959L755 955z"/>
<path style="fill:#ada9aa; stroke:none;" d="M689 978L720 978L719 974L726 979L689 980C686.779 989.602 683.227 998.684 680.111 1008C678.876 1011.69 675.586 1016.84 676.201 1020.85C676.936 1025.62 700.234 1024.08 702.995 1020.68C707.279 1015.41 706.722 1007.22 711 1002L710 1005L728 986L727 983L730 982L728 980C728.086 974.339 719.465 967.54 714 970C712.96 965.011 704.368 953.425 698.339 957.647C692.848 961.493 690.423 971.85 689 978z"/>
<path style="fill:#0d0a09; stroke:none;" d="M803 956L804 957L803 956M670 957L671 958L670 957M822.333 957.667L822.667 958.333L822.333 957.667M591 958L591 959L594 959L591 958M795 958L796 959L795 958M587 959L585 969C587.969 966.77 590.087 961.809 587 959M642 959L643 960L642 959M436 960L437 965L438 965L436 960M820 960L819 962L820 960M491 961L492 962L491 961M556 961L557 962L556 961M574 962L575 963L574 962M772 962L772 963L780 964L772 962M823 962L823 963L826 963L823 962M667 963L668 964L667 963M818 963L814 966L815 972L816 972L818 963M509.333 964.667L509.667 965.333L509.333 964.667M638 964L641 967L638 964z"/>
<path style="fill:#ada9aa; stroke:none;" d="M675 964L673 975L675 974L673 982C677.072 979.411 678.676 976.82 679 972L676 972L676 967L677 967L678 971L682 966L678 967L677 967L675 964z"/>
<path style="fill:#0d0a09; stroke:none;" d="M707 964L708 965L707 964M792.667 964.333L793.333 964.667L792.667 964.333z"/>
<path style="fill:#ada9aa; stroke:none;" d="M687 965L686 968L687 965z"/>
<path style="fill:#0d0a09; stroke:none;" d="M798.667 965.333L799.333 965.667L798.667 965.333M438.333 966.667L438.667 967.333L438.333 966.667M457 966L460 970L457 966M662 966L663 967L662 966M792 966L793 967L792 966M801 966L802 967L801 966M376 967L380 970L380 969L376 967M404 967L404 968L407 968L404 967M546.667 967.333L547.333 967.667L546.667 967.333M804 967L804 970L805 970L804 967M810 967L811 968L810 967M494 968L497 982L493 986L497 986L498 986L501 984L494 968z"/>
<path style="fill:#ada9aa; stroke:none;" d="M748 968L748 970L750 970L750 968L748 968z"/>
<path style="fill:#0d0a09; stroke:none;" d="M509.333 969.667L509.667 970.333L509.333 969.667z"/>
<path style="fill:#ada9aa; stroke:none;" d="M683 969C682.011 972.903 680.115 976.46 684 979L686 969L683 969z"/>
<path style="fill:#0d0a09; stroke:none;" d="M791 969L792 970L791 969M808 969L809 970L808 969M439 970L440 980L441 980L439 970M715 970L719 974L715 970M586 971L584 1008L585 1008L590 980L586 971M788 971L791 975L788 971M511 972L511 980L512 980L511 972M541 972L542 973L541 972M694 974L699 973L694 974z"/>
<path style="fill:#ada9aa; stroke:none;" d="M744.667 972.333L745.333 972.667L744.667 972.333z"/>
<path style="fill:#0d0a09; stroke:none;" d="M345 973L347 978L345 973M366 973L366 974L370 974L366 973M675 973L676 974L675 973M802 973L798 979L802 973M363 974L364 975L363 974M539 974L537 981L538 981L539 974M702 974L702 975L706 975L702 974M320 975L320 976L328 976L320 975M382 975L382 979L374 979L381 983L390 984L391 984C397.608 980.533 402.55 985.142 409 987C402.235 979.455 392.311 980.4 383 980L382 975M316 976L319 979L316 976z"/>
<path style="fill:#ada9aa; stroke:none;" d="M338 976L344 987L342 985C343.067 980.721 342.454 977.443 338 976z"/>
<path style="fill:#0d0a09; stroke:none;" d="M791 976L792 977L791 976M295.667 977.333L296.333 977.667L295.667 977.333M636 977L637 978L636 977M812 977L813 978L812 977M300.667 978.333L301.333 978.667L300.667 978.333M320 978L324 983L320 978M546 978L546 979L549 979L546 978M597 978L597 980L599 980L597 978M792.333 978.667L792.667 979.333L792.333 978.667M550 979L552 981L550 979M767 979L768 980L767 979M359 984L358 981L353 981L356 986L372 985L372 984L366 984L369 982L359 984M409 982L412 980L409 982M525 980L524 984L525 980M532 980L533 981L532 980M754 980L754 981L758 981L754 980M797 980L793 988L794 988L797 980M307 981L308 982L307 981M441 981L441 988L442 988L441 981M663.333 981.667L663.667 982.333L663.333 981.667z"/>
<path style="fill:#ada9aa; stroke:none;" d="M667 1023C672.659 1019.79 673.636 1012.8 675.375 1007C677.979 998.313 682.058 989.697 685 981C664.675 981.227 668.174 1008.13 667 1023z"/>
<path style="fill:#0d0a09; stroke:none;" d="M309 982L310 983L309 982M346 982L347 983L346 982M510 982L511 983L510 982M518 982L519 984L520 984L521 982L518 982M619 982L620 986L623 985L622 982L619 982M809 982L808 984L809 982M311.667 983.333L312.333 983.667L311.667 983.333z"/>
<path style="fill:#ada9aa; stroke:none;" d="M554 983L554 985L556 983L554 983z"/>
<path style="fill:#0d0a09; stroke:none;" d="M617 983L618 984L617 983M723 983L725 986L723 983M764.333 983.667L764.667 984.333L764.333 983.667M324.667 984.333L325.333 984.667L324.667 984.333M608 984L612 993L613 993L615 988L612 989L608 984M678 984L677 986L678 984M509 985L508 989L509 989L510 989L509 985M628 985L636 992L635 989L637 986L628 985M328 987L329 990L321 988L321 989C329.088 992.179 342.004 992.538 342 1004L344 1006L348 1009L349 1009L345 998C340.474 995.006 335.145 991.961 336 986L328 987M513 986L513 990L514 990L513 986M319 987L320 988L319 987M492 987L493 988L492 987M525.333 987.667L525.667 988.333L525.333 987.667z"/>
<path style="fill:#ada9aa; stroke:none;" d="M546 1001C551.066 1000.78 562.204 997.57 559.994 990.148C557.893 983.096 550.156 990.918 548.613 993.999C547.502 996.218 546.755 998.647 546 1001z"/>
<path style="fill:#0d0a09; stroke:none;" d="M765 987L765 995L766 995L765 987M597.333 988.667L597.667 989.333L597.333 988.667M620 988L621 989L620 988M708.333 988.667L708.667 989.333L708.333 988.667M805 988L806 989L805 988M441 989L441 994L442 994L441 989M792 989L793 990L792 989M804 990L805 991L804 990M538 991L538 995L539 995L538 991M400 992L399 994L400 992M411.667 992.333L412.333 992.667L411.667 992.333M514 992L517 1009L518 1009C517.555 1003.36 518.403 995.863 514 992z"/>
<path style="fill:#ada9aa; stroke:none;" d="M664 992C660.236 995.355 659.645 997.168 661 1002L659 999C649.617 1000.45 644.109 1012.28 646 1021L643 1024L662 1024L664 992z"/>
<path style="fill:#0d0a09; stroke:none;" d="M750 992L766 1008L773 1010C769.067 1005.04 767.023 1002.53 767 996L766 996L766 1002L750 992M803 992L802 994L803 992z"/>
<path style="fill:#ada9aa; stroke:none;" d="M425 993L427 995L425 993z"/>
<path style="fill:#0d0a09; stroke:none;" d="M603 993L601 994L601 995L603 993M791 993L792 994L791 993M392 994L396 999L395 994L392 994M606 994L607 995L606 994M613 994L618 1004L619 1004L613 994M640 994L645 999L640 994z"/>
<path style="fill:#ada9aa; stroke:none;" d="M721 994C716.345 998.649 710.684 1006.19 712 1013L705 1022C711.321 1022.94 722.646 1000 721 994M429 995L429 996L436 999L436 998L429 995z"/>
<path style="fill:#0d0a09; stroke:none;" d="M440 995L440 998L441 998L440 995M610.667 995.333L611.333 995.667L610.667 995.333M728 995L731 1000L732 1000L728 995M790 995L790 1002L791 1002L790 995M539 996L540 997L539 996z"/>
<path style="fill:#ada9aa; stroke:none;" d="M561 996L540 1013L540 1014L542 1017L540 1015L539 1015L533 1028L544 1027L543 1025L544 1025C553.163 1028.74 556.549 1015.65 559 1009L560 1009L557 1024L554 1027C562.885 1025.55 562.413 1014.44 563 1007L560 1009L564 996L561 996z"/>
<path style="fill:#0d0a09; stroke:none;" d="M593 996L594 997L593 996M820 996L821 997L820 996M598 997L593 1002L593 1003L598 997M800.333 997.667L800.667 998.333L800.333 997.667M818 997L819 998L818 997M396 1000L396 1012L397 1012L400 1003L400 1002L396 1000M429 1000L440 1018L441 1018L429 1000M799 1000L795 1006L795 1013L796 1013C797.08 1007.54 800.088 1005.22 805 1003L805 1002L799 1003L799 1000M813 1000L813 1001L816 1001L813 1000M315 1001L315 1002L318 1002L315 1001M286 1003L287 1004L286 1003M323 1003L341 1015L341 1014L323 1003M591 1003L588 1009L589 1009L591 1003M657 1003L658 1004L657 1003M530 1004L531 1005L530 1004M734.333 1004.67L734.667 1005.33L734.333 1004.67M789 1005L787 1018L788 1018L793 1008L789 1005M356.667 1006.33L357.333 1006.67L356.667 1006.33M371 1006L378 1014L371 1006M520 1008L521 1009L520 1008M534 1008L535 1009L534 1008M652 1008L653 1009L652 1008M812 1009L812 1010L817 1009L812 1009M398 1009L399 1010L398 1009M523 1009L524 1010L523 1009M774 1010L778 1014L774 1010M808 1012L811 1011L808 1012M1020 1010L1020 1011L1023 1011L1020 1010M327 1012L331 1014L330 1011L327 1012M1000.67 1011.33L1001.33 1011.67L1000.67 1011.33M1004 1011L1005 1012L1004 1011M1007.67 1011.33L1008.33 1011.67L1007.67 1011.33M622 1012L623 1015L624 1015L622 1012M1045 1012L1040 1018L1045 1012M507 1014L508 1015L507 1014M647.333 1014.67L647.667 1015.33L647.333 1014.67z"/>
<path style="fill:#ada9aa; stroke:none;" d="M733 1022L760 1021L760 1022L751 1025L750 1025C746.112 1022.34 739.921 1021.87 737 1026L736 1026C735.395 1022.98 728.703 1024.2 726 1026C723.776 1027.48 722.839 1030.9 721 1032C717.869 1033.88 712.918 1033.37 710 1036C706.688 1038.98 705.543 1045.64 703 1045L699 1049L690 1066C697.244 1069.98 704.947 1069 713 1069C713.495 1064.39 715.221 1056.77 711 1054L711 1053L715 1054L713 1041L713 1040L715 1037L716 1037L717 1054L724 1051L715 1058C720.103 1057.49 727.207 1056.4 729 1051L730 1051L733 1052C725.348 1058.59 715.253 1057.19 715 1069C726.021 1068.75 743.679 1072.59 753.826 1068.4C757.35 1066.94 759.411 1062.77 762.075 1060.21C767.955 1054.57 771.499 1049.47 769 1041L773 1040C773.726 1030.88 779.002 1025.01 769 1020L769 1034L768 1034C768 1029.31 769.237 1023.74 764 1022L764 1021L767 1021C764.893 1008.08 738.173 1013.52 733 1022z"/>
<path style="fill:#0d0a09; stroke:none;" d="M794 1014L795 1015L794 1014M832.667 1014.33L833.333 1014.67L832.667 1014.33M331 1015L332 1016L331 1015M342 1015L344 1019L345 1019L342 1015M378 1015L378 1016L382 1018L382 1017L378 1015M392 1016L393 1017L392 1016M624 1016L625 1017L624 1016M475 1017L475 1018L481 1020L481 1019L475 1017M542 1017L545 1019L545 1018L542 1017M783 1017L784 1018L783 1017M799 1017L800 1018L799 1017M441 1019L449 1032L441 1019M625 1019L627 1022L625 1019M384 1020L389 1026L384 1020M485 1021L486 1022L485 1021M524.333 1023.67L524.667 1024.33L524.333 1023.67M558 1024L559 1025L558 1024z"/>
<path style="fill:#ada9aa; stroke:none;" d="M672 1050C675.038 1055.53 682.441 1054 688 1054L700 1024C694.35 1024.94 678.902 1022.06 674 1025C666.461 1029.52 675.228 1050.81 672 1050M692 1051L693 1051L703 1033C707.122 1032.5 707.703 1027.74 708 1024C699.895 1025.35 693.27 1043.65 692 1051M711 1033L725 1024C717.129 1024 712.383 1024.15 711 1033z"/>
<path style="fill:#0d0a09; stroke:none;" d="M739 1024L742 1027L739 1024M824 1024L821 1028L824 1024M475 1025L477 1027L477 1025L475 1025z"/>
<path style="fill:#ada9aa; stroke:none;" d="M640 1053L635 1069C657.533 1068.98 659.776 1043.49 662 1026C657.518 1025.22 649.674 1023.52 645.419 1025.6C639.608 1028.45 636.481 1048.28 640 1053z"/>
<path style="fill:#0d0a09; stroke:none;" d="M733 1025L736 1028L733 1025M751.667 1025.33L752.333 1025.67L751.667 1025.33M294 1026C291.262 1030.22 285.57 1029 281 1029L281 1030L305 1030.7L320 1032L325 1030L325 1029C314.89 1029 303.071 1030.99 294 1026z"/>
<path style="fill:#ada9aa; stroke:none;" d="M579 1028L568 1064L571 1065L571 1066L568 1070L610 1069C609.43 1067.2 608.393 1062.8 607 1066L606 1066L607 1060L608 1060L611 1069L627 1070C629.247 1061.01 622.679 1051.56 613 1054L610 1051L610 1050L613 1050L610 1043C615.782 1049.37 627.336 1053.94 628 1063L631 1063C631.869 1052.36 636.772 1042.29 632 1032L635 1033L636 1026L630 1028L613 1026.96L579 1028z"/>
<path style="fill:#0d0a09; stroke:none;" d="M139 1028L139 1029L189 1029C176.111 1023.59 153.049 1028 139 1028M332 1030L337 1029L332 1030z"/>
<path style="fill:#ada9aa; stroke:none;" d="M555 1031C550.046 1030.92 548.712 1034.52 548 1039C552.891 1038.94 555.091 1037.97 558 1034L556 1031L560 1031C558.022 1028.53 555.808 1027.16 555 1031M563 1069L566 1069L577 1028L567.938 1029.6L565.83 1041L563 1069z"/>
<path style="fill:#0d0a09; stroke:none;" d="M630 1028L631 1032L632 1032L630 1028M743 1028L743 1030L745 1030L743 1028M819 1028L820 1029L819 1028M191 1029L191 1030L251 1030L232 1029L191 1029M269 1029L269 1030L275 1030L269 1029M277 1029L277 1030L280 1030L277 1029M327 1029L328 1030L327 1029z"/>
<path style="fill:#ada9aa; stroke:none;" d="M473 1030L484 1047L486 1047L487 1044L488 1044C484.398 1054.17 485.451 1064.57 498 1067L496 1061L499 1069L508 1069C507.77 1057.85 503.904 1047.26 499.796 1037C498.017 1032.56 493.058 1025.42 490 1033L489 1033L489 1030L473 1030M504 1029C504.207 1033 508.073 1051.36 513.12 1051.36C519.99 1051.36 521.996 1035.73 519.347 1031.32C516.913 1027.27 508.048 1029 504 1029M521 1029L522 1035L523 1035L523 1029L521 1029M528 1036L535 1046L540 1043L541 1047C536.074 1048.98 536.985 1052.81 539 1057C544.208 1052.2 544.795 1043.72 546 1037L545 1037L543 1044L542 1044L544 1032L547 1034L549 1029C540.71 1029 530.402 1026.12 528 1036z"/>
<path style="fill:#0d0a09; stroke:none;" d="M653 1029L657 1035L653 1029z"/>
<path style="fill:#ada9aa; stroke:none;" d="M777 1029L770 1056C784.358 1053.85 785.968 1038.93 777 1029z"/>
<path style="fill:#0d0a09; stroke:none;" d="M538 1030L539 1031L538 1030M754 1030L755 1031L754 1030M817 1030L818 1031L817 1030M444 1031L470 1055C470.522 1046.17 455.01 1039.56 450 1033L444 1031M404 1032L403 1037L404 1037L404 1032M747 1032L748 1033L747 1032M754.333 1032.67L754.667 1033.33L754.333 1032.67M816 1032L817 1033L816 1032M299 1034L300 1035L299 1034M679 1034L680 1035L679 1034M769 1034L769 1040L770 1040L769 1034M607 1035L609 1043L610 1043L607 1035M658 1035L659 1036L658 1035M297 1036L298 1037L297 1036M488 1037L488 1042L489 1042L488 1037M598.333 1037.67L598.667 1038.33L598.333 1037.67M737 1037L736 1039L737 1037M402.333 1038.67L402.667 1039.33L402.333 1038.67z"/>
<path style="fill:#ada9aa; stroke:none;" d="M526 1038C520.374 1048.55 515.718 1057.02 515 1069C530.67 1073.59 525.164 1058.67 531 1051L532 1055L528 1070L537 1069L535 1060L538 1061L532 1051C533.033 1045.45 531.084 1040.64 526 1038M547 1048C541.748 1052.35 540.139 1063.48 540 1070C543.673 1069.95 551.412 1071.3 554.4 1068.97C559.402 1065.08 557.937 1046.06 558 1040C551.796 1040 545.032 1039.86 547 1048z"/>
<path style="fill:#0d0a09; stroke:none;" d="M599.333 1040.67L599.667 1041.33L599.333 1040.67M640 1040L641 1041L640 1040M734 1040L730 1051L731 1051L739 1041L734 1040z"/>
<path style="fill:#ada9aa; stroke:none;" d="M669 1041L672 1045L669 1041z"/>
<path style="fill:#0d0a09; stroke:none;" d="M741 1041L740 1042L741 1045L733 1051L733 1052L742 1052L739 1049L739 1048L746 1043L741 1041M749 1041L750 1042L749 1041M824 1041L825 1042L824 1041M594.667 1043.33L595.333 1043.67L594.667 1043.33M598 1044L601 1046L600 1043L598 1044M706 1044L707 1045L706 1044M310 1045L311 1046L310 1045M603 1045L605 1047L603 1045M403 1047L404 1048L403 1047M550 1047L550 1048L553 1048L550 1047M776 1047L776 1049L778 1049L776 1047M786.333 1047.67L786.667 1048.33L786.333 1047.67z"/>
<path style="fill:#ada9aa; stroke:none;" d="M668 1048L664 1059C668.746 1056.4 669.873 1053.26 670 1048L668 1048z"/>
<path style="fill:#0d0a09; stroke:none;" d="M608.667 1049.33L609.333 1049.67L608.667 1049.33M314 1050L316 1052L314 1050M494 1050L495 1051L494 1050M724 1050L725 1051L724 1050M674 1051L675 1052L674 1051M701 1051L702 1055L703 1055L701 1051M250 1052L251 1053L250 1052M449 1054L449 1055L459 1055C456.333 1051.85 452.556 1052.65 449 1054M574 1052L577 1056L574 1052M385 1054L388 1057L389 1057L387 1053L385 1054M461 1053L462 1054L461 1053M704 1054L705 1055L704 1054z"/>
<path style="fill:#ada9aa; stroke:none;" d="M661 1069C674.976 1069 680.403 1069.66 687 1056C684.036 1055.11 681.563 1054.47 681 1058L675 1059L677 1056C669.485 1054.82 662.913 1062.18 661 1069z"/>
<path style="fill:#0d0a09; stroke:none;" d="M397 1056L398 1057L397 1056M492 1056L492 1058L494 1058L492 1056M496 1056L497 1057L496 1056M262 1057L263 1058L262 1057M390 1059L393 1058L390 1059M395 1057L396 1058L395 1057M707 1057L707 1058L710 1061L707 1057M681 1058L681 1060L683 1060L681 1058M791 1058L792 1059L791 1058M674 1059L675 1060L674 1059M725 1059L726 1060L725 1059M276.667 1060.33L277.333 1060.67L276.667 1060.33M792 1060L798 1062L798 1061L792 1060M267.667 1061.33L268.333 1061.67L267.667 1061.33M271 1061L272 1062L271 1061M284 1061L284 1062L289 1065L290 1065L293 1063L284 1061M582 1062L588 1067L587 1064L592 1064L582 1062M645.333 1061.67L645.667 1062.33L645.333 1061.67M724 1061L721 1064L721 1068L722 1068L724 1061M801.667 1061.33L802.333 1061.67L801.667 1061.33z"/>
<path style="fill:#ada9aa; stroke:none;" d="M853 1068C856.213 1074.58 872.568 1088.26 880 1088L891 1099.21L907.961 1111.1L940 1111L1110 1108L1110 1109L912 1113L939 1136C928.284 1129.89 919.493 1118.37 908 1113.85C898.79 1110.24 881.771 1112.42 872 1113.39C865.34 1114.05 853.436 1110.97 851 1119C844.802 1119.99 844.42 1124.64 846 1130L847 1127L848 1127L843 1152L847 1151C846.425 1153.4 846.525 1153.49 849 1154L849 1155C841.6 1155.09 836.026 1159.78 834 1167L839 1167L839 1168C829.245 1167.69 826.206 1172.77 818.985 1178.41C807.02 1187.76 800.489 1199.64 792.169 1211.99C786.677 1220.13 780.401 1227.18 778 1237C789.602 1233.34 816.62 1219.04 820 1207L817 1206L817 1205L823 1210L820 1211L822 1214L814 1219L838 1220L830 1226C829.12 1221.87 812.034 1218.47 810 1222C802.852 1222.85 789.283 1230.92 787 1238C778.573 1236.78 773.974 1244.25 769.243 1250C759.629 1261.69 752.719 1274.34 745.66 1287.58C742.845 1292.85 737.655 1296.04 736 1302C744.204 1304.75 755.22 1314.01 763.982 1313.5C768.618 1313.24 773.797 1305.27 776.588 1302C785.845 1291.15 795.422 1282.4 803.819 1270.94C810.956 1261.2 824.105 1253.62 825.741 1241C826.322 1236.52 827.164 1229.51 822 1228L822 1227L830 1226L831 1236C825.977 1236.63 829.226 1243.31 827.569 1246.98C825.787 1250.93 821.732 1252.95 820 1257C830.911 1253.61 836.281 1252.51 833 1241L834 1241L836 1247C845.783 1240.84 850.884 1228.14 852 1217L838 1220L838 1219C841.858 1217.75 846.769 1217.21 848 1213L849 1213C854.677 1219.5 860.088 1211.06 858 1205L860 1207C864.054 1205.5 865.909 1203.16 867 1199L878 1199L877 1202L880 1200L889 1206C886.69 1205.33 884.667 1205.22 882.284 1204.97C859.867 1202.62 884.86 1230.91 890 1237C880.852 1231.31 877.71 1222.18 867 1218.62C862.207 1217.03 856.144 1215.81 855 1222C851.189 1224.59 850.362 1228.17 853 1232C841.789 1238.26 834.746 1252.67 840 1264C837.799 1261.93 835.724 1258.03 832.857 1256.95C828.998 1255.49 824.233 1258.28 821 1260.15C808.892 1267.16 806.71 1278.45 797.585 1287.39C788.719 1296.08 774.168 1304.72 770 1317C802.737 1330.43 834.684 1345.75 867 1360.14C880.97 1366.36 901.581 1371.92 913 1382C933.036 1384.34 956.934 1406.54 971 1420L974 1418L974 1423C986.506 1424.01 992.842 1438.69 1006 1439C1005.13 1443.6 1017.58 1454.61 1019 1448L1020 1448C1021.23 1455.73 1030.27 1463.14 1038 1464.48C1057.67 1467.88 1081 1463 1101 1463C1107.22 1463 1123.43 1465.91 1128.4 1461.97C1130.59 1460.23 1129.99 1456.41 1129.71 1454C1129.11 1448.82 1131.56 1430.19 1126.68 1427.53C1119.69 1423.7 1104.91 1429 1097 1429L1097 1428C1103.91 1427.94 1121.88 1428.43 1127.26 1423.98C1130.25 1421.5 1128.9 1414.38 1128.62 1411C1127.96 1402.9 1124.98 1395.09 1124.17 1387C1123.44 1379.64 1125.55 1372.32 1121 1366L1159 1365.51L1174 1374C1170.67 1380.93 1172.72 1388.59 1171.56 1396C1168.31 1416.81 1164.43 1441.43 1169 1462L1182.97 1460.4L1182.99 1435L1180 1361L1172.01 1177L1170.04 1128L1168.82 1108.6L1157 1107L1122 1108L1122 1107L1169 1106C1169 1095.29 1168.02 1084.65 1168 1074C1167.99 1070.85 1169.22 1064.26 1166.4 1062.03C1161.33 1058.01 1146.02 1061.26 1140 1061.83C1118.48 1063.88 1096.56 1061.78 1075 1063.83C1048.3 1066.37 1020.82 1064.36 994 1065.01C946.999 1066.17 900.044 1068 853 1068M474 1062L492.461 1087L501 1097L502 1085L504 1094L504 1095C500.057 1098.52 504.21 1106.08 509 1106C506.699 1096.66 509.113 1084.37 501 1078L502 1082C497.756 1073.6 495.863 1071.01 486 1071L486 1070L491 1070C487.768 1064.31 480.232 1062.15 474 1062z"/>
<path style="fill:#0d0a09; stroke:none;" d="M307 1063L308 1064L307 1063M336 1063L337 1064L336 1063M461 1063L461 1064L464 1064L461 1063M577.667 1063.33L578.333 1063.67L577.667 1063.33M594 1063L595 1064L594 1063M89 1064L89 1065L123 1065L89 1064M596 1064L598 1067L596 1064M127 1065L127 1066L141 1066L127 1065M152 1065L152 1066L165 1066L152 1065M175 1066L175 1067L186 1068L175 1066z"/>
<path style="fill:#ada9aa; stroke:none;" d="M300 1066L300 1067L307 1068L307 1066L300 1066z"/>
<path style="fill:#0d0a09; stroke:none;" d="M435 1066L436 1067L435 1066M521 1066L522 1067L521 1066M456 1067L457 1068L456 1067M535 1067L536 1068L535 1067z"/>
<path style="fill:#ada9aa; stroke:none;" d="M687 1067L687 1069L692 1069L687 1067z"/>
<path style="fill:#0d0a09; stroke:none;" d="M364 1068L365 1069L364 1068M374 1068L375 1069L374 1068z"/>
<path style="fill:#ada9aa; stroke:none;" d="M757 1071L757 1073L760 1074L760 1075L755 1073C744.064 1085.24 732.257 1093.96 728 1111L748 1102L742 1109C737.566 1106.49 732.312 1109.93 730 1114L737 1112C741.251 1116.86 756.78 1113 763 1113C788.32 1113 819.385 1117.86 844 1112L846 1107L845 1112L903 1112C900.759 1105.09 884.236 1092.56 877 1093C876.158 1090.16 873.989 1086.27 871 1089C857.413 1059.05 814.349 1069.75 788.286 1070.14C778.285 1070.29 766.647 1068.15 757 1071M328 1069C331.874 1076.46 345.159 1080.36 353 1082L355 1079L360 1083C363.419 1068.81 336.735 1069.44 328 1069M407 1070C407.543 1075.42 409.37 1085.15 415 1087L415 1088L412 1088L416 1113L508 1114C505.74 1108.65 502.314 1104.44 497 1102C497.866 1094.61 489.304 1083.37 483 1080C483.173 1070.23 473.061 1071 466 1071C446.274 1071 426.673 1070.35 407 1070M710 1084L713 1084C711.599 1087.84 709.478 1092.92 713 1096L713 1097C706.805 1106.08 713.741 1113.92 723 1114C726.821 1103.32 732.312 1091.11 739.8 1082.46C743.802 1077.83 749.04 1075.66 752 1070L722 1071.16L710.604 1073.43L710 1084z"/>
<path style="fill:#0d0a09; stroke:none;" d="M301 1071L302 1072L301 1071z"/>
<path style="fill:#ada9aa; stroke:none;" d="M503 1072L507 1077C507.864 1073.21 507.064 1071.38 503 1072M541 1106C541.16 1098.23 544.674 1076.13 535.57 1071.6C524.905 1066.3 519.958 1082.39 521.662 1089.99C523.146 1096.61 535.294 1103.14 541 1106M540 1071L544 1103C552.912 1097.94 554.923 1080.35 555 1071L540 1071M611 1114L611 1115L564 1116L574 1190L585 1190L585 1191C570.06 1188.59 575.676 1207.81 576.011 1217C576.997 1244.11 579.511 1274.66 586 1301C594.986 1298.86 608.087 1285.61 614.061 1278.42C616.629 1275.33 619.541 1270.14 616 1267L616 1266C622.629 1264.59 623.318 1245.88 623.917 1240C625.606 1223.41 621.355 1209.22 618.389 1193C616.208 1181.07 616.407 1168.93 614.778 1157C613.88 1150.43 618.798 1130.02 612 1127L612 1126C615.688 1124.92 615.635 1122.49 615 1119L617 1116L612 1116L612 1115C620.19 1114.38 619.995 1107.77 620 1101L623 1102L628 1071L616 1073L615 1073L601 1071L601 1072C608.404 1077.11 611.555 1080.04 614 1089C605.202 1073.53 597.581 1071 580 1071C575.484 1071 568.26 1069.57 564.919 1073.32C558.379 1080.65 560.963 1094.21 561.95 1103C562.256 1105.73 561.982 1111.98 564.603 1113.65C567.363 1115.41 573.798 1114 577 1114L611 1114M634 1071L634 1088C642.239 1085.69 643.682 1078.25 646 1071L634 1071M653 1071C646.896 1087.8 642 1101.89 642 1120L645 1120L655 1071L653 1071M653 1103C663.578 1098.05 673.077 1081.72 677 1071C672.697 1071 664.16 1069.36 660.564 1072.03C655.342 1075.9 653.273 1096.65 653 1103M658 1143L658 1144L648.843 1150.1L645.552 1167L639 1201L642 1200C637.662 1210.89 631.948 1225.92 635 1238C649.458 1233.38 678.176 1215.78 664 1199L668 1200C669.906 1190.08 678.941 1180.72 676 1170C684.913 1166.62 683.798 1156.13 688.024 1149.33C692.875 1141.52 703.886 1137.62 708 1129L701 1129L701 1128C711.211 1127.91 714.41 1116.89 703 1115.64C699.774 1115.29 696.646 1117.46 694 1119L695 1116L661 1116L661 1114C670.332 1113.99 679.665 1114.06 688.999 1114C693.099 1113.97 697.636 1114.75 700 1111L709 1114L707 1102L707 1101C712.676 1092.69 704.99 1085.91 701 1079L708 1085L708 1071C701.76 1071 691.047 1069.07 685.326 1071.6C680.988 1073.52 678.356 1080.2 675.947 1084C668.97 1094.99 659.545 1104.65 653.941 1116.29C649.91 1124.66 643.13 1146.88 658 1143M517 1072L515 1073L517 1076L517 1077C513.16 1081.74 513.746 1088.14 520 1090L519 1075L519 1074L524 1073L524 1072L518 1074L517 1072z"/>
<path style="fill:#0d0a09; stroke:none;" d="M696 1072L701 1079L696 1072M717 1072L716 1074L717 1072M295 1073L297 1076L298 1075L295 1073M352 1075L354 1079L352 1075M435 1075L434 1079L439 1079L435 1075M440 1075L441 1076L440 1075M760 1075L760 1076L767 1079L767 1078L760 1075M446 1076C448.262 1079.13 450.398 1078.82 454 1078L454 1077L446 1076M464 1077L464 1078L467 1078L464 1077M719 1077L718 1079L719 1077M110 1078L111 1079L110 1078M303 1078L306 1081L303 1078M456 1078L456 1079L462 1079L456 1078M472 1078L482 1080L482 1079L472 1078M300.667 1079.33L301.333 1079.67L300.667 1079.33M768 1079L783 1095L791 1094L791 1093L768 1079M887 1079L885 1082L887 1079M445 1080L444 1082L445 1080M307.667 1081.33L308.333 1081.67L307.667 1081.33M316 1081L317 1082L316 1081M379 1082L380 1083L379 1082M442 1082L443 1083L442 1082M712 1082L713 1083L712 1082M302 1083L301 1087L315 1088L315 1087L302 1083M313 1083L313 1084L320 1086L313 1083M381.667 1083.33L382.333 1083.67L381.667 1083.33M97 1084L99 1086L99 1084L97 1084M371 1084L372 1092L373 1092L371 1084M769 1085L770 1086L769 1085M526 1086L532 1092L526 1086M122.667 1087.33L123.333 1087.67L122.667 1087.33M812 1087L813 1088L812 1087M118 1088L118 1091L120 1090L120 1089L118 1088M329 1088L330 1089L329 1088M415 1088L415 1089L423 1088L415 1088M809 1088L810 1089L809 1088M331 1089L331 1092L331 1093L345 1098L341 1093L347 1094L348 1092L348 1091L341 1093L331 1089M338 1089L339 1090L338 1089M614 1089L619 1101L620 1101L614 1089M802 1089L802 1090L805 1090L802 1089M103 1094L103 1095C108.138 1094.35 112.896 1094.54 116 1090L103 1094M467 1090L467 1091L473 1092L467 1090M475 1091L485 1095L475 1091z"/>
<path style="fill:#ada9aa; stroke:none;" d="M636 1096L640 1090C636.679 1091.1 636.263 1092.59 636 1096z"/>
<path style="fill:#0d0a09; stroke:none;" d="M800 1090L794 1093L794 1094L801 1091L800 1090M462 1091L463 1092L462 1091M714 1091L715 1092L714 1091M764 1091L759 1094L759 1095L766 1092L764 1091M768 1091L775 1095L768 1091M83 1092L84 1093L83 1092M235 1092L242 1100C247.995 1101.21 251.189 1105.33 253 1111L234 1111L234 1112C239.408 1112 248.998 1110.15 253.737 1113.03C265.859 1120.38 266.276 1140.67 278 1149L257 1112L332 1114L332 1113L274 1111.17L257.174 1109.97L248 1098L235 1092M321 1093L343 1110L343 1109L321 1093M871 1093L856 1111L875 1095L871 1093M84 1096L87 1095L84 1096M359 1094L357 1100L361 1101L359 1094z"/>
<path style="fill:#ada9aa; stroke:none;" d="M515 1094L516 1107C521.028 1103.42 521.06 1096.23 515 1094z"/>
<path style="fill:#0d0a09; stroke:none;" d="M90 1096C92.8172 1099.17 97.3352 1096.84 101 1096L90 1096z"/>
<path style="fill:#ada9aa; stroke:none;" d="M632 1095L625 1113C637.257 1117.58 638.085 1102.43 632 1095z"/>
<path style="fill:#0d0a09; stroke:none;" d="M748 1102L758 1096C753.618 1095.27 749.943 1098.26 748 1102z"/>
<path style="fill:#ada9aa; stroke:none;" d="M552 1096L545 1114L555 1115L556 1114L552 1096z"/>
<path style="fill:#0d0a09; stroke:none;" d="M796 1096L796 1097L807 1101L796 1096M596 1097L597 1098L596 1097M83 1098L83 1099L87 1099L83 1098M435 1098L436 1099L435 1098M495 1098L496 1099L495 1098z"/>
<path style="fill:#ada9aa; stroke:none;" d="M522 1098L525 1106C525.012 1114.34 532.299 1115.23 539 1114C536.62 1109.01 533.533 1106.51 528 1106L528 1105L531 1105L522 1098z"/>
<path style="fill:#0d0a09; stroke:none;" d="M308 1101L309 1102L308 1101M706 1102L705 1104L706 1102M356 1103L356 1109L356 1110L361 1109L361 1107L356 1103M360 1103L361 1104L360 1103M849 1103L846 1107L849 1103M106 1104L106 1107L80 1107L80 1108L137 1110L137 1109L108 1107L110 1104L106 1104M694.667 1106.33L695.333 1106.67L694.667 1106.33M386.667 1107.33L387.333 1107.67L386.667 1107.33z"/>
<path style="fill:#ada9aa; stroke:none;" d="M518 1107L518 1114L524 1114L521 1107L518 1107z"/>
<path style="fill:#0d0a09; stroke:none;" d="M697.667 1107.33L698.333 1107.67L697.667 1107.33M700 1110L704 1107L700 1110M1114 1107L1114 1108L1121 1108L1114 1107M139 1110L139 1111L176 1110C166.828 1106.15 148.703 1108.2 139 1110M1122 1109L1123 1110L1122 1109M180 1110L180 1111L227 1112L214 1110L180 1110M228 1110L228 1112L231 1112L231 1110L228 1110M232 1111L233 1112L232 1111z"/>
<path style="fill:#ada9aa; stroke:none;" d="M359 1114L361 1117L361 1114L359 1114M379 1114C381.074 1126.2 391.126 1146.89 406 1135L405 1138L417 1139L413 1115L379 1114M417 1114C414.368 1122.91 417.894 1129.57 420 1138C433.818 1140.38 446.516 1147.09 457.996 1154.83C463.685 1158.67 470.882 1166.69 478 1166L477 1159L479 1159C479.001 1172.38 495.325 1192.24 509 1195C505.72 1178.09 505.646 1153.44 484 1150L484 1149L503 1159L508 1135L506 1116L427 1115L428 1117L417 1114M732 1117C727.843 1114.26 725.47 1116.82 724 1121L727 1120L727 1121L722 1125L741 1126L741 1127C734.898 1127 724.302 1124.97 719.105 1128.6C712.485 1133.24 708.786 1145.12 704.85 1152C693.591 1171.69 678.055 1192.61 676 1216C682.729 1215.69 699.074 1214.27 704 1210C708.693 1217.68 715.838 1211.14 721.61 1214.13C728.469 1217.69 727.755 1227.13 737 1229L737 1230L733 1232L721 1214L719 1214L718 1215L719 1219C709.043 1213.26 699.646 1216.17 689 1216.91C683.892 1217.26 677.519 1216.52 674.086 1221.27C665.286 1233.47 665.12 1254.56 665 1269C680.751 1273.5 696.343 1282.99 711 1290.27C716.187 1292.84 724.926 1299.4 731 1297.38C740.077 1294.36 743.541 1281.45 747.711 1274C751.547 1267.14 761.217 1260.28 757 1252C766.509 1255.03 775.086 1236.74 772 1229C776.258 1228.31 777.975 1226.11 779 1222L774 1222L779 1217L780 1221L782 1221L789 1208L785 1209L785 1208C795.483 1204.4 799.719 1193.29 806.555 1185.46C816.911 1173.58 834.061 1167.42 840.387 1152C842.269 1147.41 844.645 1140.98 844.653 1136C844.661 1131.01 841.743 1126.09 843.893 1121.13C845.22 1118.08 848.865 1116.47 851 1114C822.63 1114 794.267 1115 766 1115C757.197 1115 739.111 1111.61 732 1117z"/>
<path style="fill:#0d0a09; stroke:none;" d="M91 1115L91 1118L93 1117L93 1116L91 1115z"/>
<path style="fill:#ada9aa; stroke:none;" d="M708 1115L708 1117L710 1117L710 1115L708 1115M713 1115L714 1122C718.279 1120.97 720.515 1119.16 722 1115L713 1115M517 1116C514.119 1131.52 510.987 1151.26 512.089 1167C512.858 1177.97 516.501 1189.12 518.275 1200C519.766 1209.13 529.081 1226.27 540 1224L549.861 1235.26L557 1248C556.765 1237.94 552.725 1227.97 551.3 1218C547.742 1193.1 545.367 1168.66 539.877 1144C538.233 1136.62 533.342 1129.49 529.375 1123.17C528.044 1121.05 526.976 1115.39 524 1118L517 1116M530 1116C531.146 1121.7 536.122 1132.72 541 1136L541 1116L530 1116M548 1116C549.625 1120.18 551.621 1122.74 556 1124L556 1116L548 1116M624 1116C620.605 1142.29 618.296 1172.29 627 1198L628 1198C640.301 1172.87 637.158 1142.41 635 1116L624 1116z"/>
<path style="fill:#0d0a09; stroke:none;" d="M423 1117L424 1118L423 1117M428 1117L429 1118L428 1117M729.333 1117.67L729.667 1118.33L729.333 1117.67M524 1118L527 1121L524 1118M503 1119L504 1120L503 1119M693 1119L692 1121L693 1119M727 1119L728 1120L727 1119M87 1120L88 1121L87 1120M497 1124L502 1120L497 1124M612 1120L613 1121L612 1120M849 1120L850 1121L849 1120z"/>
<path style="fill:#ada9aa; stroke:none;" d="M544 1122L545.286 1143L552.725 1181L557 1212L559 1212C560.9 1208.68 565.375 1204.87 565.467 1200.98C565.923 1181.63 561.23 1159.42 557.919 1140C556.544 1131.93 552.395 1124.36 544 1122z"/>
<path style="fill:#0d0a09; stroke:none;" d="M607 1123L605 1129L611 1128L608 1126L609 1123L607 1123M75 1124L76 1125L75 1124M495 1124L493 1125L493 1126L495 1124M342 1126L342 1127L347 1128L342 1126M355 1125L352 1129L362 1127L371.722 1143L378 1161C379.223 1148.63 367.914 1126.79 355 1125M475.333 1126.67L475.667 1127.33L475.333 1126.67M349 1127L350 1128L349 1127M741 1127L741 1128L745 1130L741 1127M658 1142L658 1143L700 1130C687.499 1125.52 669.049 1137.4 658 1142z"/>
<path style="fill:#ada9aa; stroke:none;" d="M378 1130L381 1135L378 1130z"/>
<path style="fill:#0d0a09; stroke:none;" d="M455 1130L457 1132L455 1130M669 1131L670 1132L669 1131M745 1131L749 1135L745 1131M459 1133L465 1139L459 1133M249 1134L250 1135L249 1134M880 1134L881 1135L880 1134z"/>
<path style="fill:#ada9aa; stroke:none;" d="M674 1197L675 1197L689.485 1168.29L709 1135C689.454 1141.64 676.747 1178.33 674 1197z"/>
<path style="fill:#0d0a09; stroke:none;" d="M750 1135L751 1136L750 1135M864 1135L865 1136L864 1135M883 1135L884 1136L883 1135M317.333 1136.67L317.667 1137.33L317.333 1136.67M939 1136L967 1158.01L1018 1195.42L1122 1271.42L1171 1306C1165.25 1298.55 1155.54 1293.67 1148 1288.12C1130.42 1275.16 1112.71 1262.36 1095 1249.58C1057.82 1222.73 1021.28 1194.99 984 1168.29C969.919 1158.21 955.172 1142.25 939 1136M687 1137L686 1143L687 1143L687 1137M865 1137L847 1151L870 1141.72L886 1148L886 1147C879.022 1144.09 872.84 1138.75 865 1141L865 1137z"/>
<path style="fill:#ada9aa; stroke:none;" d="M388 1139C388.375 1147.59 392.605 1154.99 394 1163.29C396.954 1180.84 396.88 1198.49 404.703 1215C408.166 1222.31 412.655 1232.65 421 1235C425.555 1215.86 419.203 1195.89 417.174 1177C416.44 1170.17 419.181 1160.34 415.543 1154.21C412.879 1149.73 403.706 1148.86 399 1149L388 1139z"/>
<path style="fill:#0d0a09; stroke:none;" d="M242 1142L245 1140L242 1142M318 1140L329 1158L330 1158L318 1140z"/>
<path style="fill:#ada9aa; stroke:none;" d="M396 1140C398.831 1149.63 416.954 1154.04 417 1141L396 1140z"/>
<path style="fill:#0d0a09; stroke:none;" d="M75 1141L76 1142L75 1141z"/>
<path style="fill:#ada9aa; stroke:none;" d="M420 1141C420 1154.17 417.421 1170.46 421.847 1183C423.048 1186.4 423.431 1193.57 427 1194C425.572 1199.4 422.732 1219.66 429 1221L429 1222C425.134 1225.39 423.856 1239.87 424.105 1245C424.667 1256.59 430.056 1268.71 432.664 1280C435.046 1290.31 435.045 1300.53 436.166 1311C437.044 1319.2 436.322 1333.65 447 1334C446.846 1327.6 440.032 1319.48 444 1314L443 1318C446.544 1315.02 446.606 1309.33 446 1305L447 1305L450 1307C451.136 1302.96 453.608 1297.16 450 1294L446 1284L450 1283L453 1286L454 1307L445 1320C447.117 1326.29 449.205 1328.92 456 1329L456 1330L452 1333L480 1335L493 1338.65L521 1347L519 1360C527.947 1359.3 555.292 1336.48 541 1329C543.349 1322.91 539.206 1315.96 537.347 1310C532.965 1295.96 530.853 1267.12 512 1265.11C498.609 1263.68 486.323 1270.36 473 1268.79C466.568 1268.03 461.876 1270.18 459 1263L464 1263L464 1267C484.292 1267 503.465 1261.37 523 1267L514.167 1234L511 1219C516.944 1198.89 492.517 1192.48 482 1181L488 1185C485.721 1180.12 482.118 1176.74 477 1175L481 1180L473 1178L475 1175L466 1167L466 1161C459.835 1160.03 455.256 1154.77 450 1151.72C441.354 1146.72 430.005 1141.87 420 1141z"/>
<path style="fill:#0d0a09; stroke:none;" d="M240 1143L241 1144L240 1143M314 1143L310 1148L317 1147L314 1143M480 1143L481 1144L480 1143M763 1143L766 1145L766 1144L763 1143M258 1146L261 1145L258 1146M687.333 1144.67L687.667 1145.33L687.333 1144.67M304 1146L308 1148L304 1146M481 1146L478 1152L484 1149L481 1146M101 1150L105 1148L101 1150M471 1147L473 1151L474 1151L471 1147M887 1148L887 1149L895 1150L887 1148M213 1155L213 1156L240 1151.13L259 1152C245.695 1145.61 226.593 1152.36 213 1155M110 1150L115 1157L115 1152L110 1150M897 1150L901 1157L902 1157L897 1150M100 1151L101 1152L100 1151M127.667 1151.33L128.333 1151.67L127.667 1151.33M317.333 1151.67L317.667 1152.33L317.333 1151.67M399 1151L400 1152L399 1151M474 1152L475 1156L476 1156L474 1152M80 1153L81 1154L80 1153M98 1153L99 1154L98 1153M125 1153L128 1155L128 1154L125 1153M130 1153L129 1158L130 1158L132 1153L130 1153M133 1153L136 1156L133 1153M398 1154L399 1155L398 1154M856 1154L857 1155L856 1154M122 1155L120 1159C122.649 1158.43 123.355 1157.41 122 1155M203 1156L203 1157L212 1156L203 1156M860 1156L863 1159L860 1156M97 1160L103 1159C100.318 1157.26 98.792 1157.31 97 1160M476.333 1157.67L476.667 1158.33L476.333 1157.67M197 1158L198 1159L197 1158M78 1160L78 1161L85 1161L78 1160M321 1162L322 1163L321 1162M456 1162L466 1166L466 1165L456 1162M127 1165L127 1166L133 1164L127 1165M321 1164L324 1174L325 1174L325 1166L321 1164M868 1164L868 1166L870 1166L868 1164M113 1166L113 1167L116 1167L116 1166L113 1166M851 1166L851 1167L856 1166L851 1166M857 1166L857 1167L864 1174L865 1174L860 1165L857 1166M840 1166L840 1167L843 1167L840 1166M83 1167L84 1168L83 1167M99 1167L100 1168L99 1167M120 1167L120 1168L133 1170L133 1169L120 1167M93 1168L91 1172L95 1168L93 1168M138 1168L138 1169L143 1170L143 1169L138 1168M655 1169L656 1172L657 1172L655 1169M868 1170L868 1171L872 1172L871 1169L868 1170M146 1173L147 1177L148 1177L146 1173M159 1173L160 1174L159 1173M657 1173L658 1174L657 1173M671 1173L672 1174L671 1173M873 1173L875 1175L875 1176C870.001 1179.26 870.327 1183.45 870 1189L872 1189L877 1173L873 1173M117 1174L116 1179L117 1180L118 1178L119 1178L122 1185L125 1181L117 1174M123 1174L124 1175L123 1174M336 1174L338 1176L336 1174M125 1175L125 1179L128 1178L128 1176L127 1175L125 1175M438 1178L441 1177L438 1178M325 1177L324 1183L325 1183L328 1177L325 1177M74.6667 1178.33L75.3333 1178.67L74.6667 1178.33M130.667 1178.33L131.333 1178.67L130.667 1178.33M436 1178L437 1179L436 1178M80 1179L74 1186L78 1185L80 1179M133 1179L134 1180L133 1179M472 1179L471 1181L472 1179M802 1182L806 1179L802 1182M877 1179L878 1180L877 1179M1140 1179L1141 1180L1140 1179M135 1180L137 1182L135 1180M434 1180L432 1183L434 1180M481 1180L482 1181L481 1180M875 1180L876 1181L875 1180M659 1181L659 1185L660 1185L659 1181M798 1181L793 1182L793 1189L794 1189L794 1184L800 1186L800 1185L797 1184L798 1181M119 1183L120 1184L119 1183M444 1183L443 1185L444 1183M431 1184L427 1194L428 1194L431 1184M789 1184L790 1185L789 1184M801 1185L802 1186L801 1185M325 1186L326 1187L325 1186M442 1186L440 1189C442.391 1189.01 443.117 1188.31 442 1186M779 1186L780 1187L779 1186M121 1187L121 1190L122 1190L121 1187M348 1188L349 1189L348 1188M660 1188L660 1194L661 1194L660 1188M760 1188L761 1189L760 1188M789 1192L790 1192L792 1190C789.86 1188.88 789.473 1189.75 789 1192M73 1190L73 1191L76 1192L73 1190M80 1191L80 1192L84 1191L80 1191M157 1190L157 1191L160 1191L157 1190M353 1190L350 1195L353 1190M101 1191L102 1192L101 1191M585 1191L591 1197L585 1191M835 1191L836 1192L835 1191M870 1191L869 1196L870 1196L870 1191M86 1192L84 1196L86 1192M124 1192L128 1195L126 1197L127 1198L128 1196L132 1198L124 1192M120 1193L122 1195L122 1193L120 1193z"/>
<path style="fill:#ada9aa; stroke:none;" d="M125 1193L126 1194L125 1193z"/>
<path style="fill:#0d0a09; stroke:none;" d="M145 1193L146 1194L145 1193M440.333 1193.67L440.667 1194.33L440.333 1193.67M557 1195L561 1194L557 1195M844 1193L844 1194L849 1195L848 1199L852 1198L852 1197L844 1193M133 1194L133 1195L136 1195L133 1194M780 1194L782 1196L782 1194L780 1194M788 1196L790 1200L788 1196M825 1199L830 1200L831 1200L833 1197L825 1199M836 1198L839 1198L838 1196L836 1198M662 1197L664 1199L662 1197M438 1198L436 1201L438 1198M591 1198L592 1201L593 1201L591 1198M841 1198L841 1199L845 1199L841 1198M729 1199L725 1202L725 1203L729 1203L729 1199M820 1200L820 1201L824 1199L820 1200M839 1199L840 1200L839 1199M853 1199L858 1204L853 1199z"/>
<path style="fill:#ada9aa; stroke:none;" d="M873 1200L873 1201L876 1201L873 1200z"/>
<path style="fill:#0d0a09; stroke:none;" d="M133 1201L134 1204L135 1204L133 1201M847.333 1201.67L847.667 1202.33L847.333 1201.67z"/>
<path style="fill:#ada9aa; stroke:none;" d="M869 1201L870 1202L869 1201z"/>
<path style="fill:#0d0a09; stroke:none;" d="M593 1202L593 1205L594 1205L593 1202M664 1202L665 1203L664 1202M781 1202L778 1216L782 1215L780 1211L783 1210L783 1209L780 1208L781 1202M789.333 1202.67L789.667 1203.33L789.333 1202.67M813 1202L813 1203L817 1205L813 1202M850 1202L851 1203L850 1202z"/>
<path style="fill:#ada9aa; stroke:none;" d="M865 1207L870 1204L865 1207z"/>
<path style="fill:#0d0a09; stroke:none;" d="M145 1205L150 1210L145 1205M710 1205L711 1206L710 1205M149 1206L150 1207L149 1206z"/>
<path style="fill:#ada9aa; stroke:none;" d="M565 1206C554.361 1218.48 560.098 1228.71 563.405 1243C564.513 1247.79 562.927 1252.94 566 1257L566 1258C562.835 1262.45 566.549 1265.74 571 1267L569 1256L569 1255C571.179 1251.23 569.869 1246.24 569.235 1242.04C567.73 1232.07 571.108 1214.06 565 1206z"/>
<path style="fill:#0d0a09; stroke:none;" d="M594 1206L595 1207L594 1206M708 1206L709 1207L708 1206z"/>
<path style="fill:#ada9aa; stroke:none;" d="M870 1206L860 1215L872 1217L870 1206z"/>
<path style="fill:#0d0a09; stroke:none;" d="M890 1206L904 1220L890 1206M136 1207L138 1209L138 1207L136 1207M706 1207L707 1208L706 1207M595 1208L597 1212L598 1212L595 1208M704.333 1208.67L704.667 1209.33L704.333 1208.67M857 1209L858 1210L857 1209M435 1210L434 1213L435 1210M844 1210L845 1211L844 1210M156 1211L158 1213L156 1211M886.667 1211.33L887.333 1211.67L886.667 1211.33z"/>
<path style="fill:#ada9aa; stroke:none;" d="M628 1213L628 1221C631.444 1218.13 632.841 1214.95 628 1213z"/>
<path style="fill:#0d0a09; stroke:none;" d="M876.667 1213.33L877.333 1213.67L876.667 1213.33M434 1214L429 1221L436 1217L434 1214M820 1215L820 1218L821 1218L820 1215z"/>
<path style="fill:#ada9aa; stroke:none;" d="M668 1220L669 1223L670 1223L668 1220z"/>
<path style="fill:#0d0a09; stroke:none;" d="M860 1220L861 1221L860 1220M758 1221L759 1222L758 1221M790 1221L790 1224L791 1224L790 1221z"/>
<path style="fill:#ada9aa; stroke:none;" d="M521 1222C523.251 1250.48 538.179 1277.74 546 1305C547.837 1311.4 549.609 1317.94 552.443 1323.99C553.199 1325.61 554.974 1329.57 557.44 1328.5C559.669 1327.53 559.034 1322.86 558.911 1321C558.424 1313.69 558.144 1306.27 557.286 1299C555.995 1288.06 559.534 1272.2 555.142 1262.09C551.611 1253.96 541.134 1248.07 535.749 1241C531.249 1235.09 527.672 1225.46 521 1222z"/>
<path style="fill:#0d0a09; stroke:none;" d="M754 1227L754 1228L765 1226L773 1223C766.849 1221.11 759.575 1224.48 754 1227M429 1223L430 1224L429 1223z"/>
<path style="fill:#ada9aa; stroke:none;" d="M531 1225C535.478 1235.39 543.472 1248.09 554 1253C551.918 1240.94 544.01 1227.06 531 1225M632 1262L637 1257L658 1264L657 1246C662.755 1243.98 664.328 1230.31 663 1225C645.488 1231.79 629.58 1241.51 632 1262z"/>
<path style="fill:#0d0a09; stroke:none;" d="M743.667 1225.33L744.333 1225.67L743.667 1225.33M819 1227L822 1227L821 1225L819 1227M790 1227L791 1228L790 1227M812 1230L813 1230L815 1228L812 1230M877 1227L879 1233L880 1233L877 1227M747 1228L746 1233L747 1233L749 1228L747 1228M771 1228L772 1229L771 1228M244.333 1230.67L244.667 1231.33L244.333 1230.67M781 1231L782 1232L781 1231M734 1232L736 1236L737 1236L734 1232M759 1233L759 1239L765 1237L765 1236L759 1233M884 1236L886 1239L884 1236M647 1237L648 1238L647 1237M737 1237L739 1246L744 1249L748 1249L737 1237M831 1237L832 1238L831 1237M890 1237L896 1243L890 1237M832 1239L833 1240L832 1239M857.333 1240.67L857.667 1241.33L857.333 1240.67M651 1241L655 1245L651 1241M760 1242L764 1245L764 1244L760 1242M898.667 1244.33L899.333 1244.67L898.667 1244.33M790 1248L791 1249L790 1248M330 1264L330 1265L356 1250C348.244 1247.88 337.057 1260.74 330 1264M752 1249L753 1250L752 1249M856.333 1249.67L856.667 1250.33L856.333 1249.67M275 1250L276 1251L275 1250M798 1252L800 1254L798 1252M452 1254L453 1260L459 1263L452 1254M583 1254L584 1255L583 1254M586 1255L586 1256L589 1256L586 1255M567 1256L568 1257L567 1256M591.667 1256.33L592.333 1256.67L591.667 1256.33M300 1257L306 1275C305.005 1272.02 299.816 1259.7 305 1261L300 1257M447 1257L448 1258L447 1257M596 1257L597 1258L596 1257M604 1259L604 1260L607 1261L604 1259M609 1261L610 1262L609 1261M265 1262L266 1263L265 1262M613 1263L616 1266L613 1263M258 1265L258 1266L264 1267L258 1265M314.667 1264.33L315.333 1264.67L314.667 1264.33M318 1266L318 1267L328 1270L329 1265L318 1266M840 1266L844 1271L840 1266M265 1267L265 1268L295 1282L295 1281L265 1267M438 1270L442 1278L440 1270L438 1270z"/>
<path style="fill:#ada9aa; stroke:none;" d="M564 1270L566 1319C581.104 1315.86 574.62 1299.38 572.514 1289C570.968 1281.38 571.739 1274.23 564 1270z"/>
<path style="fill:#0d0a09; stroke:none;" d="M458 1271L454 1275L455 1279L456 1279L460 1271L458 1271M328 1272L329 1278L330 1278L328 1272M845 1272L849 1279L850 1279L845 1272M448 1274L448 1281L449 1281L452 1275L448 1274M943 1274L942 1277L943 1277L943 1274M820 1275L821 1276L820 1275M306 1277C307.984 1281.45 310.479 1281.25 315 1281L315 1280L306 1277M454 1280L455 1281L454 1280M850 1280L851 1281L850 1280M316 1281L316 1282L329 1289L330 1289C339.273 1281.97 346.53 1293.29 355 1295L355 1294L344 1285C333.753 1287.44 325.724 1282.73 316 1281M422 1281L419 1287L420 1287L422 1281M443 1281L442 1284L446 1284L443 1281z"/>
<path style="fill:#ada9aa; stroke:none;" d="M646 1281L645 1284L649 1285L646 1281z"/>
<path style="fill:#0d0a09; stroke:none;" d="M439.667 1282.33L440.333 1282.67L439.667 1282.33M453.333 1284.67L453.667 1285.33L453.333 1284.67M852 1285L853 1286L852 1285M292 1287L292 1289L294 1287L292 1287M811 1287L812 1288L811 1287M815 1288L814 1291L815 1291L815 1288M809 1289L811 1291L811 1289L809 1289M854 1289L857 1292L854 1289M413 1291L414 1292L413 1291M379.333 1292.67L379.667 1293.33L379.333 1292.67M809 1293L809 1294L813 1294L813 1293L809 1293M363.333 1295.67L363.667 1296.33L363.333 1295.67M490 1295L491 1296L490 1295M276 1296L275 1298L276 1296M471 1296L472 1297L471 1296M482.667 1297.33L483.333 1297.67L482.667 1297.33M807 1297L807 1300L808 1300L807 1297M503.667 1298.33L504.333 1298.67L503.667 1298.33M374 1299L375 1300L374 1299M507 1300L508 1301L507 1300M354 1301L355 1302L354 1301M356 1302L357 1303L356 1302M512 1304L514 1306L512 1304M571 1306L572 1307L571 1306M454 1307L456 1309L454 1307M514 1307L515 1308L514 1307M440 1308L441 1309L440 1308M457 1309L457 1310L460 1311L457 1309M515 1309C515.495 1312.7 517.348 1316.55 514 1319L514 1320L541 1328L541 1327C528.892 1323.51 521.298 1319.29 515 1309M915 1310L916 1311L915 1310M439.333 1311.67L439.667 1312.33L439.333 1311.67M913.333 1314.67L913.667 1315.33L913.333 1314.67z"/>
<path style="fill:#ada9aa; stroke:none;" d="M727 1319L735 1319C732.66 1314.8 729.54 1315.11 727 1319M425 1316L426 1317L425 1316z"/>
<path style="fill:#0d0a09; stroke:none;" d="M911 1317L905 1323L901 1332C905.002 1328.91 911.443 1322.33 911 1317M421 1319L420 1322L421 1319M447 1320L448 1321L447 1320M505 1321L505 1322L511 1321L505 1321M480.667 1321.33L481.333 1321.67L480.667 1321.33M501 1321L501 1323L503 1323L503 1321L501 1321M418 1324L417 1326L418 1324M487 1327L487 1328L493 1326L487 1327M416 1327L414 1333L416 1327M456 1330L457 1331L456 1330M900 1333L899 1335L900 1333M535 1337L536 1338L535 1337M897 1337L898 1338L897 1337M896 1339L895 1341L896 1339z"/>
<path style="fill:#ada9aa; stroke:none;" d="M771 1344L775 1340L771 1344z"/>
<path style="fill:#0d0a09; stroke:none;" d="M86 1343L86 1346L88 1345L88 1344L86 1343M82.6667 1352.33L83.3333 1352.67L82.6667 1352.33M888 1352L882 1362C885.314 1359.54 888.714 1356.4 888 1352M1032 1353L1031 1355L1032 1353M81.3333 1354.67L81.6667 1355.33L81.3333 1354.67M79 1358L80 1359L79 1358z"/>
<path style="fill:#ada9aa; stroke:none;" d="M722 1360L722 1362L724 1360L722 1360z"/>
<path style="fill:#0d0a09; stroke:none;" d="M78 1361L79 1362L78 1361z"/>
<path style="fill:#ada9aa; stroke:none;" d="M464 1361L462 1367L467 1361L464 1361z"/>
<path style="fill:#0d0a09; stroke:none;" d="M77 1365L69 1374L69 1375C72.7962 1373.15 77.1478 1369.49 77 1365M79 1365L80 1366L79 1365M411.333 1367.67L411.667 1368.33L411.333 1367.67M1006 1368L1007 1383L1008 1383L1008 1368L1006 1368M422 1374L426 1377L426 1376L422 1374M397.667 1375.33L398.333 1375.67L397.667 1375.33M68 1376L66 1379L68 1376z"/>
<path style="fill:#ada9aa; stroke:none;" d="M1129 1377C1129.73 1380.35 1130.6 1381.41 1134 1382C1133.42 1378.53 1132.47 1377.58 1129 1377M1147 1377L1150 1382L1152 1377L1147 1377M1169 1377L1170 1378L1169 1377z"/>
<path style="fill:#0d0a09; stroke:none;" d="M107 1379L108 1380L107 1379M429 1379L432 1382L429 1379M65 1380L64 1382L65 1380M363 1381L364 1382L363 1381M369 1387L370 1387L374 1382C370.164 1380.95 369.272 1383.58 369 1387M80 1383L79 1385L80 1383M1004 1383L1005 1384L1004 1383z"/>
<path style="fill:#ada9aa; stroke:none;" d="M900 1385L901 1386L900 1385z"/>
<path style="fill:#0d0a09; stroke:none;" d="M942 1387L942 1390L943 1390L942 1387M103 1389L103 1391L105 1391L105 1389L103 1389M85.6667 1390.33L86.3333 1390.67L85.6667 1390.33M995 1392L996 1393L995 1392M993 1394L992 1396L993 1394M1008 1395L1008 1403L1009 1403L1008 1395z"/>
<path style="fill:#ada9aa; stroke:none;" d="M925 1405L928 1403L925 1405M618 1405L616 1408L620 1408L618 1405z"/>
<path style="fill:#0d0a09; stroke:none;" d="M1009 1406L1010 1417L1011 1417L1009 1406z"/>
<path style="fill:#ada9aa; stroke:none;" d="M943.333 1407.67L943.667 1408.33L943.333 1407.67M1148 1409L1151 1412L1148 1409M942.667 1410.33L943.333 1410.67L942.667 1410.33M952 1411L952 1415L953 1415L954 1411L952 1411z"/>
<path style="fill:#0d0a09; stroke:none;" d="M1011 1418L1016 1438L1011 1438L1011 1439C1015.94 1439.79 1016.77 1442.48 1018 1447L1019 1447C1018.79 1440.21 1019.89 1438.08 1027 1438L1027 1437C1013.09 1436.99 1016.69 1427.44 1011 1418z"/>
<path style="fill:#ada9aa; stroke:none;" d="M1137 1419L1138 1426C1141.54 1423.42 1140.42 1421.09 1137 1419z"/>
<path style="fill:#0d0a09; stroke:none;" d="M419 1420L419 1421L428 1429L429 1429C427.562 1423.61 424.445 1421.05 419 1420z"/>
<path style="fill:#ada9aa; stroke:none;" d="M961 1422L967 1427L961 1422M944 1427L943 1432L947 1428L944 1427M969 1427C971.366 1431.67 975.866 1434.52 980 1437.62C990.162 1445.25 1003.53 1458.33 1016 1461L1014 1464L1017 1468L1018 1460C1003.16 1450.76 986.263 1430.12 969 1427z"/>
<path style="fill:#0d0a09; stroke:none;" d="M1028 1436L1028 1437L1097 1430L1077 1430.83L1028 1436z"/>
<path style="fill:#ada9aa; stroke:none;" d="M935 1451L935 1453L939 1455L938 1450L935 1451M754 1462L754 1467L758 1462L754 1462M1157 1470C1161.18 1468.46 1161.86 1466.3 1162 1462C1157.67 1463.29 1156.44 1465.57 1157 1470M1170.74 1465.03C1167.15 1467.96 1170 1483.38 1170 1488C1170 1511.12 1171.18 1534.96 1173.22 1558C1173.56 1561.78 1182.83 1574.59 1187.43 1571.82C1190.85 1569.77 1187.73 1550.09 1187.53 1546C1186.41 1522.98 1185.97 1500 1184.96 1477C1184.66 1470.19 1180.38 1457.17 1170.74 1465.03M1042 1466C1045.66 1474.97 1056.5 1477.82 1063.74 1482.84C1070.62 1487.61 1074.09 1494.77 1083 1496L1083 1485C1088.68 1489.73 1085.18 1494.9 1087.74 1500.82C1090.15 1506.37 1098.54 1510.42 1104 1512C1106.83 1502.43 1105.18 1490.53 1103 1481L1112 1481C1109.33 1495.36 1105.94 1520.55 1123 1526C1123.58 1528.82 1129.11 1534.07 1131.4 1529.66C1133.68 1525.26 1131.61 1517.66 1131.17 1513C1130.13 1502.03 1131.58 1490.97 1130.29 1480C1129.85 1476.34 1131.36 1469.62 1128.97 1466.6C1125.84 1462.65 1111.67 1465 1107 1465C1085.36 1465 1063.7 1466 1042 1466M427 1470L426 1472L426 1473C428.565 1472.45 428.86 1471.86 427 1470M999 1481C1002.97 1480.34 1003.66 1478.89 1003 1475L999 1481M1138 1489L1138 1491L1140 1491L1140 1489L1138 1489M799 1493L799 1498L802 1493L799 1493M1005 1505L1005 1507L1007 1507L1007 1505L1005 1505M1091 1511L1092 1514L1098 1515L1098 1514L1091 1511M1167 1522L1168 1523L1167 1522M959 1526L959 1531L963 1531L964 1526L959 1526M1077 1527L1078 1528L1077 1527M1119 1529L1125 1533L1125 1532L1119 1529M1087.67 1531.33L1088.33 1531.67L1087.67 1531.33M1017 1533L1018 1534L1017 1533M1026 1536L1027 1537L1026 1536z"/>
<path style="fill:#0d0a09; stroke:none;" d="M1178 1543L1179 1544L1178 1543M1178 1546L1177 1553L1178 1553L1178 1546z"/>
<path style="fill:#ada9aa; stroke:none;" d="M331 1553L336 1553L337 1548C332.676 1547.18 331.339 1548.75 331 1553M1073 1549L1074 1550L1073 1549M1079 1550L1080 1551L1079 1550M1152 1551L1151 1555L1155 1556L1154 1551L1152 1551M1076 1553L1076 1554L1081 1556L1076 1553M1088 1556L1091 1558L1088 1556M1094 1557L1093 1560L1094 1557M1096.33 1559.67L1096.67 1560.33L1096.33 1559.67M1104 1562L1104 1563L1109 1565L1109 1564L1104 1562M883 1565L883 1570L887 1568L887 1567L883 1565M1114 1567L1115 1568L1114 1567M1117.33 1567.67L1117.67 1568.33L1117.33 1567.67M1124 1572C1127.73 1572.79 1129.51 1572.69 1131 1569L1124 1572M1137 1576L1138 1577L1137 1576M1141 1576L1141 1577L1145 1579L1141 1576M1146 1576L1146 1578L1148 1578L1148 1576L1146 1576M1148 1579L1148 1580L1156 1583L1157 1583L1159 1580L1148 1579M1170 1584L1169 1587L1170 1587L1170 1584M1181 1587L1183 1590L1181 1587M1187 1614L1188 1615L1187 1614M1048 1645L1049 1649L1050 1649L1050 1645L1048 1645M1024 1647L1025 1648L1024 1647M701 1656L700 1662L700 1663L704 1662L704 1659L701 1656M1044 1669L1044 1671L1046 1671L1046 1669L1044 1669M1125 1719C1122.42 1723.83 1121.66 1729.62 1128 1731C1129.17 1726.01 1128.97 1722.51 1125 1719M345 1763L348 1766L345 1763M894 1775L895 1776L894 1775M695 1799L696 1800L695 1799M696 1801L697 1802L696 1801M558 1873L559 1874L558 1873M582 1873L582 1875L584 1875L584 1873L582 1873M578 1874L581 1878L578 1874M561 1880L561 1882L563 1880L561 1880M124 1881L124 1887L125 1887L126 1881L124 1881M113 1886C110.394 1895.09 118.747 1898.89 126 1902L117 1887L113 1886M586 1888L587 1889L586 1888M292 1896L295 1898L292 1896M117 1901C118.831 1904.13 120.473 1904.66 124 1904L117 1901M587 1901L590 1903L587 1901M133 1902L132 1906L135 1902L133 1902M289.333 1902.67L289.667 1903.33L289.333 1902.67M113 1903L114 1904L113 1903M111 1905C110.043 1910.52 108.619 1916.7 114 1920L119 1907L115 1909L115 1905L111 1905M133 1907C131.195 1909.35 128.929 1908.01 126.938 1909.87C122.46 1914.04 124.701 1924.98 126 1930L129 1928L129 1933C138.366 1932.27 135.038 1916.59 133 1910C135.623 1910.02 134.474 1908.46 133 1907M315 1910L316 1911L315 1910M317 1912L317 1915L320 1915L320 1912L317 1912z"/>
<path style="fill:#0d0a09; stroke:none;" d="M128 1914L129 1919L130 1919L131 1914L128 1914z"/>
<path style="fill:#ada9aa; stroke:none;" d="M584 1920L587 1923L584 1920M119 1922L117 1927L122 1931C123.194 1926.81 122.814 1924.34 119 1922z"/>
<path style="fill:#0d0a09; stroke:none;" d="M129 1922L130 1923L129 1922z"/>
<path style="fill:#ada9aa; stroke:none;" d="M563 1924L564 1925L563 1924M115 1939L116 1940L115 1939M312 1939L312 1942L315 1942L315 1939L312 1939M560 1942L562 1945L560 1942M115 1944L116 1945L115 1944M287 1946L287 1948L289 1948L289 1946L287 1946M555 1950L557 1952L557 1950L555 1950M557 1957L559 1960L559 1957L557 1957M286 1962L286 1964L289 1964L289 1962L286 1962M584 1969L584 1972L586 1972L586 1969L584 1969M555 1972L555 1975L557 1972L555 1972M290 1976L292 1979L290 1976M555 1979L559 1982L555 1979M316 1984L317 1985L316 1984M580 1990L580 1992L583 1992L583 1990L580 1990M285 2002L285 2004L287 2004L287 2002L285 2002z"/>
</svg>
